<?xml version="1.0" encoding="iso-8859-1"?>
<!-- Generator: Adobe Illustrator 16.0.0, SVG Export Plug-In . SVG Version: 6.00 Build 0)  -->
<!DOCTYPE svg PUBLIC "-//W3C//DTD SVG 1.1//EN" "http://www.w3.org/Graphics/SVG/1.1/DTD/svg11.dtd">
<svg version="1.1" id="Capa_1" xmlns="http://www.w3.org/2000/svg" xmlns:xlink="http://www.w3.org/1999/xlink" x="0px" y="0px"
	 width="293.734px" height="293.734px" viewBox="0 0 293.734 293.734" style="enable-background:new 0 0 293.734 293.734;"
	 xml:space="preserve">
<g>
	<path style="fill:#030303;" d="M293.734,64.448c0-3.233-2.624-5.855-5.855-5.855H5.855C2.625,58.592,0,61.214,0,64.448v164.839
		c0,3.236,2.625,5.855,5.855,5.855h282.023c3.231,0,5.855-2.619,5.855-5.855V64.448z M282.024,223.431H11.711V70.303h270.313
		V223.431z"/>
	<path style="fill:#030303;" d="M22.761,99.073l121.496,60.562c0.824,0.406,1.716,0.612,2.61,0.612s1.793-0.206,2.61-0.612
		l121.499-60.562c2.894-1.443,4.071-4.957,2.631-7.851c-1.441-2.894-4.952-4.068-7.857-2.627l-118.883,59.256L27.987,88.595
		c-2.902-1.447-6.41-0.266-7.851,2.627C18.689,94.122,19.867,97.635,22.761,99.073z"/>
	<path style="fill:#030303;" d="M86.963,149.943L28.41,199.782c-2.459,2.099-2.759,5.798-0.663,8.257
		c1.161,1.36,2.805,2.064,4.463,2.064c1.341,0,2.693-0.458,3.794-1.401l58.552-49.844c2.458-2.099,2.759-5.792,0.663-8.257
		C93.115,148.148,89.427,147.828,86.963,149.943z"/>
	<path style="fill:#030303;" d="M211.658,149.943c-2.471-2.115-6.164-1.795-8.257,0.658c-2.099,2.465-1.807,6.158,0.663,8.257
		l58.553,49.844c1.098,0.943,2.447,1.401,3.791,1.401c1.658,0,3.299-0.704,4.466-2.064c2.093-2.459,1.795-6.158-0.663-8.257
		L211.658,149.943z"/>
</g>
<g>
</g>
<g>
</g>
<g>
</g>
<g>
</g>
<g>
</g>
<g>
</g>
<g>
</g>
<g>
</g>
<g>
</g>
<g>
</g>
<g>
</g>
<g>
</g>
<g>
</g>
<g>
</g>
<g>
</g>
</svg>
