<?xml version="1.0" encoding="UTF-8"?>
<svg xmlns="http://www.w3.org/2000/svg" xmlns:xlink="http://www.w3.org/1999/xlink" viewBox="0 0 100 100" width="100px" height="100px">
<g id="surface22504111">
<path style=" stroke:none;fill-rule:nonzero;fill:rgb(41.176471%,18.82353%,76.47059%);fill-opacity:1;" d="M 50 4 C 24.636719 4 4 24.636719 4 50 C 4 75.363281 24.636719 96 50 96 C 75.367188 96 96 75.363281 96 50 C 96 24.636719 75.367188 4 50 4 Z M 69.945312 59.070312 C 74.421875 63.042969 75.351562 64.460938 75.503906 64.703125 C 77.355469 67.640625 73.445312 68 73.445312 68 L 65.207031 68 C 65.207031 68 63.199219 68.023438 61.484375 66.886719 C 58.691406 65.054688 55.765625 61.507812 53.710938 62.125 C 51.984375 62.640625 52 64.972656 52 66.964844 C 52 67.679688 51.386719 68 50 68 C 48.613281 68 48.039062 68 47.425781 68 C 42.910156 68 38.011719 66.480469 33.125 61.375 C 26.214844 54.15625 20.152344 39.617188 20.152344 39.617188 C 20.152344 39.617188 19.792969 38.882812 20.183594 38.4375 C 20.625 37.9375 21.828125 38.003906 21.828125 38.003906 L 29.816406 38 C 29.816406 38 30.570312 38.140625 31.109375 38.523438 C 31.554688 38.835938 31.804688 39.429688 31.804688 39.429688 C 31.804688 39.429688 33.144531 43.863281 34.855469 46.6875 C 38.195312 52.203125 39.75 52.34375 40.882812 51.75 C 42.539062 50.890625 42 45.027344 42 45.027344 C 42 45.027344 42.074219 42.507812 41.210938 41.386719 C 40.542969 40.519531 39.269531 40.054688 38.714844 39.984375 C 38.265625 39.925781 39.015625 39.136719 39.972656 38.6875 C 41.253906 38.117188 42.996094 37.972656 46 38 C 48.339844 38.023438 49.011719 38.160156 49.925781 38.371094 C 52.683594 39.007812 52 40.6875 52 46.578125 C 52 48.464844 51.738281 51.121094 53.164062 52 C 53.777344 52.378906 55.882812 52.84375 59.625 46.765625 C 61.402344 43.878906 62.816406 39.097656 62.816406 39.097656 C 62.816406 39.097656 63.109375 38.570312 63.5625 38.308594 C 64.027344 38.042969 64.015625 38.050781 64.648438 38.050781 C 65.285156 38.050781 71.664062 38 73.0625 38 C 74.460938 38 75.773438 37.984375 76 38.804688 C 76.324219 39.980469 74.96875 44.019531 71.53125 48.398438 C 65.886719 55.585938 65.261719 54.914062 69.945312 59.070312 Z M 69.945312 59.070312 "/>
</g>
</svg>
