<svg id="Слой_7" data-name="Слой 7" xmlns="http://www.w3.org/2000/svg" viewBox="0 0 358.98 212.14"><defs><style>.cls-1{isolation:isolate;}.cls-2{fill:#898989;}.cls-3{fill:#c5c5c5;}.cls-4{fill:#c7e1f9;}.cls-5{fill:#b1cadd;}.cls-6{fill:#bfdaef;}</style></defs><title>phone_layer_2</title><g class="cls-1"><polygon points="357.57 83.14 357.56 87.22 214.97 4.89 214.98 0.82 357.57 83.14"/><polygon points="214.98 0.82 214.97 4.89 1.41 129 1.43 124.92 214.98 0.82"/><polygon class="cls-2" points="144.01 207.25 144 211.32 1.41 129 1.43 124.92 144.01 207.25"/><polygon class="cls-3" points="357.57 83.14 357.56 87.22 144 211.32 144.01 207.25 357.57 83.14"/><path class="cls-4" d="M1455,177.43l144,83.14L1384,385.49l-144-83.14Zm-71,207.25,213.56-124.11L1455,178.25l-213.56,124.1L1384,384.68" transform="translate(-1240.01 -177.43)"/><polygon class="cls-4" points="357.57 83.14 144.01 207.25 1.43 124.92 214.98 0.82 357.57 83.14"/><polygon class="cls-5" points="144.02 208.06 144.01 212.14 0 129 0.01 124.92 144.02 208.06"/><polygon class="cls-6" points="358.98 83.14 358.97 87.22 144.01 212.14 144.02 208.06 358.98 83.14"/></g></svg>