<svg xmlns="http://www.w3.org/2000/svg" xmlns:xlink="http://www.w3.org/1999/xlink" viewBox="0 0 451.65 293.83"><defs><style>.cls-1{fill:none;}.cls-2{fill:#80ffdb;}.cls-3{fill:#64dfdf;}.cls-4{fill:url(#Безымянный_градиент_65);}.cls-5{isolation:isolate;}.cls-6{clip-path:url(#clip-path);}.cls-7{clip-path:url(#clip-path-2);}.cls-8{clip-path:url(#clip-path-3);}.cls-9{fill:#949494;}.cls-10{fill:#999;}.cls-11{fill:#9e9e9e;}.cls-12{fill:#a3a3a3;}.cls-13{fill:#a8a8a8;}.cls-14{fill:#adadad;}.cls-15{fill:#b3b3b3;}.cls-16{fill:#b8b8b8;}.cls-17{clip-path:url(#clip-path-4);}.cls-18{clip-path:url(#clip-path-5);}.cls-19{clip-path:url(#clip-path-6);}.cls-20{fill:#858585;}.cls-21{clip-path:url(#clip-path-7);}.cls-22{clip-path:url(#clip-path-8);}.cls-23{fill:#c5c5c5;}.cls-24{fill:#898989;}.cls-25{clip-path:url(#clip-path-9);}.cls-26{fill:#8f8f8f;}.cls-27{fill:#8a8a8a;}.cls-28{fill:#d9ead6;}.cls-29{clip-path:url(#clip-path-10);}.cls-30{fill:url(#Безымянный_градиент_65-3);}.cls-31{fill:url(#Безымянный_градиент_65-4);}.cls-32{fill:url(#Безымянный_градиент_65-5);}.cls-33{fill:url(#Безымянный_градиент_65-6);}.cls-34{fill:url(#Безымянный_градиент_65-7);}.cls-35{fill:url(#Безымянный_градиент_65-8);}.cls-36{fill:url(#Безымянный_градиент_65-9);}.cls-37{fill:url(#Безымянный_градиент_65-10);}.cls-38{fill:url(#Безымянный_градиент_65-11);}.cls-39{fill:url(#Безымянный_градиент_65-12);}.cls-40{fill:url(#Безымянный_градиент_65-13);}.cls-41{fill:#fff;stroke:#000;stroke-miterlimit:10;}.cls-42{clip-path:url(#clip-path-11);}.cls-43{clip-path:url(#clip-path-12);}.cls-44{clip-path:url(#clip-path-13);}.cls-45{clip-path:url(#clip-path-14);}.cls-46{clip-path:url(#clip-path-15);}.cls-47{fill:#dbead3;}.cls-48{clip-path:url(#clip-path-16);}.cls-49{clip-path:url(#clip-path-17);}.cls-50{clip-path:url(#clip-path-18);}.cls-51{clip-path:url(#clip-path-19);}.cls-52{clip-path:url(#clip-path-20);}.cls-53{clip-path:url(#clip-path-21);}.cls-54{fill:#1f1f1f;}.cls-55{fill:#2b2b2b;}.cls-56{fill:#353535;}.cls-57{fill:#3d3d3d;}.cls-58{fill:#444;}.cls-59{clip-path:url(#clip-path-22);}.cls-60{clip-path:url(#clip-path-23);}</style><linearGradient id="Безымянный_градиент_65" x1="1344.76" y1="433.25" x2="1355.87" y2="433.12" gradientUnits="userSpaceOnUse"><stop offset="0" stop-color="#64dfdf"/><stop offset="0.75" stop-color="#78f6dc"/><stop offset="1" stop-color="#80ffdb"/></linearGradient><clipPath id="clip-path" transform="translate(-1189.18 -157.37)"><path class="cls-1" d="M1491.72,160.5l-.09,32.6c-7.22-4.17-18.92-4.16-26.09,0l.09-32.6C1472.8,156.33,1484.5,156.33,1491.72,160.5Z"/></clipPath><clipPath id="clip-path-2" transform="translate(-1189.18 -157.37)"><path class="cls-1" d="M1639.82,250.47l-.09,32.61c0-2.76-1.8-5.51-5.43-7.61l.09-32.61C1638,245,1639.83,247.72,1639.82,250.47Z"/></clipPath><clipPath id="clip-path-3" transform="translate(-1189.18 -157.37)"><path class="cls-1" d="M1639.73,283.07c0,2.72-1.79,5.44-5.35,7.51l.09-32.61c3.56-2.07,5.35-4.78,5.35-7.5C1639.79,260.25,1639.76,273.29,1639.73,283.07Z"/></clipPath><clipPath id="clip-path-4" transform="translate(-1189.18 -157.37)"><path class="cls-2" d="M1640.82,250.48l-.09,32.6c0,2.87-1.89,5.73-5.64,7.91l.09-32.6C1638.94,256.21,1640.81,253.34,1640.82,250.48Z"/></clipPath><clipPath id="clip-path-5" transform="translate(-1189.18 -157.37)"><path class="cls-1" d="M1190.17,357.52l.1-32.61c0-2.71,1.79-5.43,5.35-7.5l-.09,32.61C1192,352.09,1190.18,354.8,1190.17,357.52Z"/></clipPath><clipPath id="clip-path-6" transform="translate(-1189.18 -157.37)"><path class="cls-1" d="M1190.17,357.53v-.85l.09-31.76V325q0,16.3-.1,32.61Z"/></clipPath><clipPath id="clip-path-7" transform="translate(-1189.18 -157.37)"><path class="cls-1" d="M1195.62,365.13c-3.61-2.08-5.43-4.82-5.45-7.55q.06-16.31.1-32.61c0,2.74,1.83,5.47,5.44,7.55C1195.68,342.31,1195.64,355.35,1195.62,365.13Z"/></clipPath><clipPath id="clip-path-8" transform="translate(-1189.18 -157.37)"><path class="cls-3" d="M1189.18,357.52l.09-32.61c0,2.9,1.9,5.81,5.73,8l-.09,32.61C1191.08,363.33,1189.17,360.42,1189.18,357.52Z"/></clipPath><clipPath id="clip-path-9" transform="translate(-1189.18 -157.37)"><path class="cls-1" d="M1364.46,414.89l-.09,32.6c-7.18,4.17-18.87,4.17-26.09,0l.09-32.61C1345.59,419.06,1357.28,419.06,1364.46,414.89Z"/></clipPath><clipPath id="clip-path-10" transform="translate(-1189.18 -157.37)"><path class="cls-4" d="M1365.17,415.3l-.09,32.61c-7.56,4.39-19.9,4.39-27.5,0l.09-32.61C1345.27,419.69,1357.61,419.69,1365.17,415.3Z"/></clipPath><linearGradient id="Безымянный_градиент_65-3" x1="1344.76" y1="432.75" x2="1355.86" y2="432.62" xlink:href="#Безымянный_градиент_65"/><linearGradient id="Безымянный_градиент_65-4" x1="1344.77" y1="434.09" x2="1355.88" y2="433.97" xlink:href="#Безымянный_градиент_65"/><linearGradient id="Безымянный_градиент_65-5" x1="1344.78" y1="434.69" x2="1355.88" y2="434.56" xlink:href="#Безымянный_градиент_65"/><linearGradient id="Безымянный_градиент_65-6" x1="1344.78" y1="434.91" x2="1355.89" y2="434.78" xlink:href="#Безымянный_градиент_65"/><linearGradient id="Безымянный_градиент_65-7" x1="1344.78" y1="434.96" x2="1355.89" y2="434.84" xlink:href="#Безымянный_градиент_65"/><linearGradient id="Безымянный_градиент_65-8" x1="1344.78" y1="434.89" x2="1355.89" y2="434.76" xlink:href="#Безымянный_градиент_65"/><linearGradient id="Безымянный_градиент_65-9" x1="1344.78" y1="434.71" x2="1355.88" y2="434.58" xlink:href="#Безымянный_градиент_65"/><linearGradient id="Безымянный_градиент_65-10" x1="1344.77" y1="434.42" x2="1355.88" y2="434.29" xlink:href="#Безымянный_градиент_65"/><linearGradient id="Безымянный_градиент_65-11" x1="1344.77" y1="433.98" x2="1355.88" y2="433.85" xlink:href="#Безымянный_градиент_65"/><linearGradient id="Безымянный_градиент_65-12" x1="1344.76" y1="433.3" x2="1355.87" y2="433.18" xlink:href="#Безымянный_градиент_65"/><linearGradient id="Безымянный_градиент_65-13" x1="1344.75" y1="432.21" x2="1355.86" y2="432.08" xlink:href="#Безымянный_градиент_65"/><clipPath id="clip-path-11" transform="translate(-1189.18 -157.37)"><path class="cls-1" d="M1303,353.14V354c0-2.47-1.62-4.94-4.87-6.81-6.45-3.72-16.91-3.73-23.33,0-3.18,1.85-4.78,4.28-4.78,6.71V353c0-2.43,1.6-4.86,4.79-6.71,6.41-3.72,16.88-3.72,23.33,0C1301.38,348.21,1303,350.68,1303,353.14Z"/></clipPath><clipPath id="clip-path-12" transform="translate(-1189.18 -157.37)"><path class="cls-1" d="M1270,353.91v0Z"/></clipPath><clipPath id="clip-path-13" transform="translate(-1189.18 -157.37)"><path class="cls-1" d="M1270.44,356.05a5.75,5.75,0,0,1-.43-2.14v-.82a5.85,5.85,0,0,0,.43,2.15Z"/></clipPath><clipPath id="clip-path-14" transform="translate(-1189.18 -157.37)"><path class="cls-1" d="M1270.44,356.05a1,1,0,0,1,0-.17v-.64a6.93,6.93,0,0,0,.8,1.45v.81A7.37,7.37,0,0,1,1270.44,356.05Z"/></clipPath><clipPath id="clip-path-15" transform="translate(-1189.18 -157.37)"><path class="cls-1" d="M1274.87,360.66a11.4,11.4,0,0,1-3.64-3.16v-.81a11.24,11.24,0,0,0,3.63,3.16c6.46,3.72,16.92,3.73,23.34,0,3.18-1.85,4.78-4.28,4.78-6.71V354c0,2.43-1.6,4.86-4.78,6.71C1291.79,364.39,1281.32,364.39,1274.87,360.66Z"/></clipPath><clipPath id="clip-path-16" transform="translate(-1189.18 -157.37)"><path class="cls-1" d="M1306,353.15V354c0,2.88-1.89,5.75-5.66,7.93-7.58,4.41-19.95,4.41-27.58,0-3.84-2.21-5.75-5.12-5.74-8V353c0,2.91,1.91,5.82,5.74,8,7.63,4.4,20,4.4,27.58,0C1304.1,358.89,1306,356,1306,353.15Z"/></clipPath><clipPath id="clip-path-17" transform="translate(-1189.18 -157.37)"><path class="cls-1" d="M1525.56,200.3v-.82a2,2,0,0,0,1.18,1.65v.81A2,2,0,0,1,1525.56,200.3Z"/></clipPath><clipPath id="clip-path-18" transform="translate(-1189.18 -157.37)"><path class="cls-1" d="M1556.44,212.71v.82a2,2,0,0,1-1.16,1.62,6.21,6.21,0,0,1-5.66,0v-.81a6.27,6.27,0,0,0,5.66,0A2,2,0,0,0,1556.44,212.71Z"/></clipPath><clipPath id="clip-path-19" transform="translate(-1189.18 -157.37)"><path class="cls-1" d="M1249,378.27l.71-.41a2,2,0,0,1,2,.19l-.71.41A2,2,0,0,0,1249,378.27Z"/></clipPath><clipPath id="clip-path-20" transform="translate(-1189.18 -157.37)"><path class="cls-1" d="M1280,400.74l-.7.41a2,2,0,0,0,.83-1.82l.7-.41A2,2,0,0,1,1280,400.74Z"/></clipPath><clipPath id="clip-path-21" transform="translate(-1189.18 -157.37)"><path class="cls-1" d="M1277.28,393.62l.71-.41a6.26,6.26,0,0,1,2.83,4.89l-.71.41A6.21,6.21,0,0,0,1277.28,393.62Z"/></clipPath><clipPath id="clip-path-22" transform="translate(-1189.18 -157.37)"><path class="cls-1" d="M1215.14,358.88l.7-.41a2.52,2.52,0,0,1,2.53.25l-.71.41A2.51,2.51,0,0,0,1215.14,358.88Z"/></clipPath><clipPath id="clip-path-23" transform="translate(-1189.18 -157.37)"><path class="cls-1" d="M1220.86,367.12l-.7.41a2.47,2.47,0,0,0,1-2.28,7.77,7.77,0,0,0-3.53-6.12l.71-.41a7.79,7.79,0,0,1,3.53,6.12A2.5,2.5,0,0,1,1220.86,367.12Z"/></clipPath></defs><title>phone_back</title><g id="Слой_2" data-name="Слой 2"><g class="cls-5"><g class="cls-5"><g class="cls-6"><g class="cls-5"><path d="M1491.72,160.5l-.09,32.6a20.24,20.24,0,0,0-2.65-1.27l.09-32.6a18.51,18.51,0,0,1,2.65,1.27" transform="translate(-1189.18 -157.37)"/><path d="M1489.07,159.23l-.09,32.6c-.72-.28-1.47-.53-2.24-.75l.09-32.61a22.66,22.66,0,0,1,2.24.76" transform="translate(-1189.18 -157.37)"/><path d="M1486.83,158.47l-.09,32.61q-.95-.27-1.92-.48l.09-32.6c.65.13,1.3.29,1.92.47" transform="translate(-1189.18 -157.37)"/><path d="M1484.91,158l-.09,32.6c-.6-.12-1.22-.23-1.83-.31l.09-32.61c.62.09,1.23.19,1.83.32" transform="translate(-1189.18 -157.37)"/><path d="M1483.08,157.68l-.09,32.61c-.6-.09-1.2-.15-1.8-.2l.09-32.61c.61.05,1.2.12,1.8.2" transform="translate(-1189.18 -157.37)"/><path d="M1481.28,157.48l-.09,32.61c-.61-.05-1.21-.09-1.82-.1l.09-32.61c.61,0,1.22.05,1.82.1" transform="translate(-1189.18 -157.37)"/><path d="M1479.46,157.38l-.09,32.61c-.63,0-1.27,0-1.9,0l.1-32.61c.63,0,1.26,0,1.89,0" transform="translate(-1189.18 -157.37)"/><path d="M1477.57,157.39l-.1,32.61c-.68,0-1.37.07-2,.13l.09-32.6c.68-.07,1.37-.12,2.06-.14" transform="translate(-1189.18 -157.37)"/><path d="M1475.51,157.53l-.09,32.6c-.79.08-1.58.19-2.35.33l.09-32.6c.77-.14,1.56-.25,2.35-.33" transform="translate(-1189.18 -157.37)"/><path d="M1473.16,157.86l-.09,32.6a27.54,27.54,0,0,0-3.5.87l.09-32.61a25.93,25.93,0,0,1,3.5-.86" transform="translate(-1189.18 -157.37)"/><path d="M1469.66,158.72l-.09,32.61a21,21,0,0,0-4,1.77l.09-32.6a20.69,20.69,0,0,1,4-1.78" transform="translate(-1189.18 -157.37)"/></g></g></g><polygon points="445.21 85.49 445.12 118.1 302.45 35.73 302.55 3.13 445.21 85.49"/><g class="cls-5"><g class="cls-7"><g class="cls-5"><path d="M1639.82,250.47l-.09,32.61c0-2.76-1.8-5.51-5.43-7.61l.09-32.61c3.63,2.1,5.44,4.86,5.43,7.61" transform="translate(-1189.18 -157.37)"/></g></g></g><g class="cls-5"><g class="cls-8"><g class="cls-5"><path class="cls-9" d="M1639.82,250.47l-.09,32.61v.16l.09-32.61v-.16" transform="translate(-1189.18 -157.37)"/><path class="cls-10" d="M1639.82,250.63l-.09,32.61a6.37,6.37,0,0,1-.12,1.06l.09-32.61a6.26,6.26,0,0,0,.12-1.06" transform="translate(-1189.18 -157.37)"/><path class="cls-11" d="M1639.7,251.69l-.09,32.61a6.47,6.47,0,0,1-.3,1l.09-32.61a6.47,6.47,0,0,0,.3-1" transform="translate(-1189.18 -157.37)"/><path class="cls-12" d="M1639.4,252.73l-.09,32.61a7.72,7.72,0,0,1-.5,1.05l.1-32.6a7.76,7.76,0,0,0,.49-1.06" transform="translate(-1189.18 -157.37)"/><path class="cls-13" d="M1638.91,253.79l-.1,32.6a7.57,7.57,0,0,1-.74,1.1l.09-32.6a8.25,8.25,0,0,0,.75-1.1" transform="translate(-1189.18 -157.37)"/><path class="cls-14" d="M1638.16,254.89l-.09,32.6a9.34,9.34,0,0,1-1.14,1.23l.09-32.6a10.79,10.79,0,0,0,1.14-1.23" transform="translate(-1189.18 -157.37)"/><path class="cls-15" d="M1637,256.12l-.09,32.6a14.54,14.54,0,0,1-2.33,1.73l.09-32.61a13.93,13.93,0,0,0,2.33-1.72" transform="translate(-1189.18 -157.37)"/><path class="cls-16" d="M1634.69,257.84l-.09,32.61-.22.13.09-32.61.22-.13" transform="translate(-1189.18 -157.37)"/></g></g></g><g class="cls-5"><path class="cls-2" d="M1640.82,250.48l-.09,32.6c0,2.87-1.89,5.73-5.64,7.91l.09-32.6C1638.94,256.21,1640.81,253.34,1640.82,250.48Z" transform="translate(-1189.18 -157.37)"/><g class="cls-17"><g class="cls-5"><path class="cls-2" d="M1640.82,250.48l-.09,32.6v.18l.09-32.61v-.17" transform="translate(-1189.18 -157.37)"/><path class="cls-2" d="M1640.82,250.65l-.09,32.61a7.26,7.26,0,0,1-.13,1.12l.09-32.61a6.11,6.11,0,0,0,.13-1.12" transform="translate(-1189.18 -157.37)"/><path class="cls-2" d="M1640.69,251.77l-.09,32.61a6.42,6.42,0,0,1-.32,1.09l.1-32.6a7.55,7.55,0,0,0,.31-1.1" transform="translate(-1189.18 -157.37)"/><path class="cls-2" d="M1640.38,252.87l-.1,32.6a7.92,7.92,0,0,1-.51,1.11l.09-32.61a8.44,8.44,0,0,0,.52-1.1" transform="translate(-1189.18 -157.37)"/><path class="cls-2" d="M1639.86,254l-.09,32.61a9.51,9.51,0,0,1-.79,1.16l.09-32.6a8.59,8.59,0,0,0,.79-1.17" transform="translate(-1189.18 -157.37)"/><path class="cls-2" d="M1639.07,255.14l-.09,32.6a11.13,11.13,0,0,1-1.2,1.3l.09-32.61a11,11,0,0,0,1.2-1.29" transform="translate(-1189.18 -157.37)"/><path class="cls-2" d="M1637.87,256.43l-.09,32.61a15,15,0,0,1-2.45,1.81l.09-32.6a15.14,15.14,0,0,0,2.45-1.82" transform="translate(-1189.18 -157.37)"/><path class="cls-2" d="M1635.42,258.25l-.09,32.6-.24.14.09-32.6.24-.14" transform="translate(-1189.18 -157.37)"/></g></g></g><polygon points="276.45 3.13 276.36 35.73 6.35 192.64 6.45 160.04 276.45 3.13"/><g class="cls-5"><g class="cls-18"><g class="cls-5"><path d="M1195.62,317.41l-.09,32.61-.22.13.09-32.61.22-.13" transform="translate(-1189.18 -157.37)"/><path d="M1195.4,317.54l-.09,32.61a15.24,15.24,0,0,0-2.34,1.72l.1-32.6a14.1,14.1,0,0,1,2.33-1.73" transform="translate(-1189.18 -157.37)"/><path d="M1193.07,319.27l-.1,32.6a10.79,10.79,0,0,0-1.14,1.23l.09-32.6a11.91,11.91,0,0,1,1.15-1.23" transform="translate(-1189.18 -157.37)"/><path d="M1191.92,320.5l-.09,32.6a9.31,9.31,0,0,0-.74,1.11l.09-32.61a9.21,9.21,0,0,1,.74-1.1" transform="translate(-1189.18 -157.37)"/><path d="M1191.18,321.6l-.09,32.61a6.24,6.24,0,0,0-.49,1.05l.09-32.61a8.24,8.24,0,0,1,.49-1" transform="translate(-1189.18 -157.37)"/><path d="M1190.69,322.65l-.09,32.61a6.47,6.47,0,0,0-.3,1l.09-32.61a6.47,6.47,0,0,1,.3-1" transform="translate(-1189.18 -157.37)"/><path d="M1190.39,323.69l-.09,32.61a6.26,6.26,0,0,0-.12,1.06l.09-32.61a6.37,6.37,0,0,1,.12-1.06" transform="translate(-1189.18 -157.37)"/><path d="M1190.27,324.75l-.09,32.61c0,.05,0,.11,0,.16l.1-32.61v-.16" transform="translate(-1189.18 -157.37)"/></g></g></g><g class="cls-5"><g class="cls-19"><g class="cls-5"><path class="cls-20" d="M1195.71,332.52l-.09,32.61c-3.64-2.1-5.45-4.86-5.45-7.61l.1-32.61c0,2.76,1.8,5.52,5.44,7.61" transform="translate(-1189.18 -157.37)"/></g></g></g><g class="cls-5"><g class="cls-21"><g class="cls-5"><path class="cls-20" d="M1195.71,332.52l-.09,32.61c-3.64-2.1-5.45-4.86-5.45-7.61l.1-32.61c0,2.76,1.8,5.52,5.44,7.61" transform="translate(-1189.18 -157.37)"/></g></g></g><g class="cls-5"><path class="cls-3" d="M1189.18,357.52l.09-32.61c0,2.9,1.9,5.81,5.73,8l-.09,32.61C1191.08,363.33,1189.17,360.42,1189.18,357.52Z" transform="translate(-1189.18 -157.37)"/><g class="cls-22"><g class="cls-5"><path class="cls-3" d="M1195,332.93l-.09,32.61c-3.83-2.21-5.74-5.12-5.73-8l.09-32.61c0,2.9,1.9,5.81,5.73,8" transform="translate(-1189.18 -157.37)"/></g></g></g><polygon class="cls-23" points="445.29 100.6 445.2 133.21 175.19 290.12 175.28 257.52 445.29 100.6"/><polygon class="cls-24" points="149.2 257.52 149.1 290.13 6.44 207.76 6.53 175.15 149.2 257.52"/><polygon class="cls-2" points="446.01 101.02 445.91 133.62 175.91 290.54 176 257.93 446.01 101.02"/><polygon class="cls-3" points="148.49 257.93 148.4 290.54 5.73 208.17 5.83 175.56 148.49 257.93"/><g class="cls-5"><g class="cls-25"><g class="cls-5"><path class="cls-16" d="M1364.46,414.89l-.09,32.6a20.52,20.52,0,0,1-4,1.78l.09-32.61a21.1,21.1,0,0,0,4-1.77" transform="translate(-1189.18 -157.37)"/><path class="cls-15" d="M1360.42,416.66l-.09,32.61a27.81,27.81,0,0,1-3.49.87l.09-32.61a27.81,27.81,0,0,0,3.49-.87" transform="translate(-1189.18 -157.37)"/><path class="cls-14" d="M1356.93,417.53l-.09,32.61c-.78.14-1.56.25-2.36.33l.09-32.61c.8-.08,1.58-.19,2.36-.33" transform="translate(-1189.18 -157.37)"/><path class="cls-13" d="M1354.57,417.86l-.09,32.61c-.68.06-1.36.11-2,.13l.09-32.6c.69,0,1.37-.07,2-.14" transform="translate(-1189.18 -157.37)"/><path class="cls-12" d="M1352.52,418l-.09,32.6c-.63,0-1.26,0-1.89,0l.09-32.61q.94,0,1.89,0" transform="translate(-1189.18 -157.37)"/><path class="cls-11" d="M1350.63,418l-.09,32.61c-.61,0-1.22-.05-1.82-.1l.09-32.6c.6,0,1.21.08,1.82.09" transform="translate(-1189.18 -157.37)"/><path class="cls-10" d="M1348.81,417.91l-.09,32.6c-.61-.05-1.21-.11-1.8-.2l.09-32.6c.6.08,1.2.15,1.8.2" transform="translate(-1189.18 -157.37)"/><path class="cls-9" d="M1347,417.71l-.09,32.6c-.62-.08-1.23-.19-1.83-.32l.09-32.6c.61.12,1.22.23,1.83.32" transform="translate(-1189.18 -157.37)"/><path class="cls-26" d="M1345.18,417.39l-.09,32.6c-.65-.13-1.29-.29-1.92-.47l.09-32.6c.63.18,1.27.33,1.92.47" transform="translate(-1189.18 -157.37)"/><path class="cls-27" d="M1343.26,416.92l-.09,32.6c-.77-.22-1.52-.47-2.24-.75l.09-32.61a22.66,22.66,0,0,0,2.24.76" transform="translate(-1189.18 -157.37)"/><path class="cls-20" d="M1341,416.16l-.09,32.61a20.24,20.24,0,0,1-2.65-1.27l.09-32.61a20.24,20.24,0,0,0,2.65,1.27" transform="translate(-1189.18 -157.37)"/></g></g></g><path class="cls-28" d="M1634.39,242.87c7.21,4.16,7.25,10.94.08,15.1l-270,156.92c-7.18,4.17-18.87,4.17-26.09,0l-142.66-82.37c-7.22-4.17-7.26-10.94-.09-15.11l270-156.91c7.17-4.17,18.87-4.17,26.09,0Z" transform="translate(-1189.18 -157.37)"/><g class="cls-5"><path class="cls-4" d="M1365.17,415.3l-.09,32.61c-7.56,4.39-19.9,4.39-27.5,0l.09-32.61C1345.27,419.69,1357.61,419.69,1365.17,415.3Z" transform="translate(-1189.18 -157.37)"/><g class="cls-29"><g class="cls-5"><path class="cls-30" d="M1365.17,415.3l-.09,32.61a21.51,21.51,0,0,1-4.25,1.86l.09-32.6a22.13,22.13,0,0,0,4.25-1.87" transform="translate(-1189.18 -157.37)"/><path class="cls-31" d="M1360.92,417.17l-.09,32.6a27.12,27.12,0,0,1-3.68.92l.09-32.61a26.74,26.74,0,0,0,3.68-.91" transform="translate(-1189.18 -157.37)"/><path class="cls-32" d="M1357.24,418.08l-.09,32.61c-.82.15-1.65.26-2.48.35l.09-32.61c.84-.08,1.67-.2,2.48-.35" transform="translate(-1189.18 -157.37)"/><path class="cls-33" d="M1354.76,418.43l-.09,32.61c-.72.07-1.44.12-2.17.14l.1-32.61c.72,0,1.44-.07,2.16-.14" transform="translate(-1189.18 -157.37)"/><path class="cls-34" d="M1352.6,418.57l-.1,32.61c-.66,0-1.33,0-2,0l.09-32.61c.66,0,1.33,0,2,0" transform="translate(-1189.18 -157.37)"/><path class="cls-35" d="M1350.6,418.58l-.09,32.61c-.65,0-1.29-.05-1.93-.1l.1-32.61c.63,0,1.28.09,1.92.1" transform="translate(-1189.18 -157.37)"/><path class="cls-36" d="M1348.68,418.48l-.1,32.61-1.89-.21.09-32.61c.63.09,1.26.16,1.9.21" transform="translate(-1189.18 -157.37)"/><path class="cls-37" d="M1346.78,418.27l-.09,32.61c-.65-.1-1.3-.21-1.93-.34l.09-32.61c.64.13,1.28.25,1.93.34" transform="translate(-1189.18 -157.37)"/><path class="cls-38" d="M1344.85,417.93l-.09,32.61c-.69-.14-1.37-.31-2-.5l.09-32.6c.66.18,1.34.35,2,.49" transform="translate(-1189.18 -157.37)"/><path class="cls-39" d="M1342.82,417.44l-.09,32.6c-.81-.23-1.6-.49-2.36-.79l.09-32.61c.76.3,1.55.56,2.36.8" transform="translate(-1189.18 -157.37)"/><path class="cls-40" d="M1340.46,416.64l-.09,32.61a21.78,21.78,0,0,1-2.79-1.34l.09-32.61a21.78,21.78,0,0,0,2.79,1.34" transform="translate(-1189.18 -157.37)"/></g></g></g></g></g><g id="Слой_3" data-name="Слой 3"><g class="cls-5"><polygon class="cls-41" points="408.39 103.83 408.39 104.64 266.2 22.32 266.2 21.51 408.39 103.83"/><polygon class="cls-41" points="266.2 21.51 266.2 22.32 53.25 146.42 53.25 145.61 266.2 21.51"/><polygon class="cls-41" points="195.44 227.93 195.44 228.75 53.25 146.42 53.25 145.61 195.44 227.93"/><polygon class="cls-41" points="408.39 103.83 408.39 104.64 195.44 228.75 195.44 227.93 408.39 103.83"/><polygon class="cls-41" points="408.39 103.83 195.44 227.93 53.25 145.61 266.2 21.51 408.39 103.83"/><polygon class="cls-41" points="195.44 228.75 195.44 229.56 51.84 146.42 51.84 145.61 195.44 228.75"/><polygon class="cls-41" points="407.83 103.83 407.82 104.64 195.44 229.56 195.44 228.75 407.83 103.83"/><path class="cls-41" d="M1454.79,178.06,1598,261.2,1384.23,386.12,1241,303Zm-70.4,207.24L1597,261.2l-142-82.32L1242.43,303l142,82.32" transform="translate(-1189.18 -157.37)"/></g></g><g id="Слой_4" data-name="Слой 4"><g class="cls-5"><g class="cls-5"><g class="cls-42"><g class="cls-5"><path d="M1303,353.14V354c0-2.47-1.62-4.94-4.87-6.81a17.3,17.3,0,0,0-2.37-1.14v-.81a19.89,19.89,0,0,1,2.37,1.13c3.25,1.88,4.87,4.35,4.86,6.81" transform="translate(-1189.18 -157.37)"/><path d="M1295.76,345.2V346a20.39,20.39,0,0,0-2-.67v-.82c.68.2,1.35.42,2,.68" transform="translate(-1189.18 -157.37)"/><path d="M1293.76,344.52v.82c-.56-.16-1.13-.3-1.72-.42v-.82c.59.12,1.16.26,1.73.42" transform="translate(-1189.18 -157.37)"/><path d="M1292,344.1v.82c-.54-.12-1.08-.21-1.64-.29v-.81c.55.07,1.1.17,1.63.28" transform="translate(-1189.18 -157.37)"/><path d="M1290.4,343.82v.81c-.53-.07-1.06-.13-1.6-.18v-.81c.54,0,1.08.1,1.61.18" transform="translate(-1189.18 -157.37)"/><path d="M1288.79,343.64v.81c-.54,0-1.09-.07-1.63-.09v-.81c.54,0,1.09,0,1.63.09" transform="translate(-1189.18 -157.37)"/><path d="M1287.16,343.55v.81c-.57,0-1.13,0-1.7,0v-.81c.57,0,1.13,0,1.7,0" transform="translate(-1189.18 -157.37)"/><path d="M1285.46,343.56v.81c-.61,0-1.23.06-1.83.12v-.81q.91-.09,1.83-.12" transform="translate(-1189.18 -157.37)"/><path d="M1283.63,343.68v.81c-.71.07-1.42.17-2.11.3V344c.69-.12,1.4-.22,2.11-.29" transform="translate(-1189.18 -157.37)"/><path d="M1281.52,344v.82a23.7,23.7,0,0,0-3.12.77v-.81a25.87,25.87,0,0,1,3.12-.78" transform="translate(-1189.18 -157.37)"/><path d="M1278.4,344.75v.81a18.44,18.44,0,0,0-3.61,1.59l-.2.12v-.82l.2-.12a18.94,18.94,0,0,1,3.6-1.58" transform="translate(-1189.18 -157.37)"/><path d="M1274.6,346.45v.82a12.34,12.34,0,0,0-2.08,1.54V348a13,13,0,0,1,2.09-1.54" transform="translate(-1189.18 -157.37)"/><path d="M1272.51,348v.82a9.5,9.5,0,0,0-1,1.1v-.82a11.47,11.47,0,0,1,1-1.1" transform="translate(-1189.18 -157.37)"/><path d="M1271.49,349.09v.82a7.32,7.32,0,0,0-.66,1v-.81a7.74,7.74,0,0,1,.66-1" transform="translate(-1189.18 -157.37)"/><path d="M1270.83,350.08v.81a5.67,5.67,0,0,0-.44.94V351a6.14,6.14,0,0,1,.44-.94" transform="translate(-1189.18 -157.37)"/><path d="M1270.39,351v.81a5.44,5.44,0,0,0-.27.93V352a5.44,5.44,0,0,1,.27-.93" transform="translate(-1189.18 -157.37)"/><path d="M1270.12,352v.81a6.29,6.29,0,0,0-.11.95v-.81a6,6,0,0,1,.11-.95" transform="translate(-1189.18 -157.37)"/><path d="M1270,352.9v0" transform="translate(-1189.18 -157.37)"/></g></g></g><g class="cls-5"><g class="cls-43"><g class="cls-5"><path class="cls-20" d="M1277.24,361v.81a17.88,17.88,0,0,1-2.37-1.14c-3.25-1.87-4.87-4.34-4.86-6.8V353c0,2.47,1.62,4.93,4.86,6.81a17.88,17.88,0,0,0,2.37,1.14" transform="translate(-1189.18 -157.37)"/></g></g></g><g class="cls-5"><g class="cls-44"><g class="cls-5"><path class="cls-20" d="M1277.24,361v.81a17.88,17.88,0,0,1-2.37-1.14c-3.25-1.87-4.87-4.34-4.86-6.8V353c0,2.47,1.62,4.93,4.86,6.81a17.88,17.88,0,0,0,2.37,1.14" transform="translate(-1189.18 -157.37)"/></g></g></g><g class="cls-5"><g class="cls-45"><g class="cls-5"><path class="cls-20" d="M1277.24,361v.81a17.88,17.88,0,0,1-2.37-1.14c-3.25-1.87-4.87-4.34-4.86-6.8V353c0,2.47,1.62,4.93,4.86,6.81a17.88,17.88,0,0,0,2.37,1.14" transform="translate(-1189.18 -157.37)"/></g></g></g><g class="cls-5"><g class="cls-46"><g class="cls-5"><path class="cls-9" d="M1303,353.14v0" transform="translate(-1189.18 -157.37)"/><path class="cls-10" d="M1303,353.29v.81a6,6,0,0,1-.11.95v-.81a6.15,6.15,0,0,0,.11-.95" transform="translate(-1189.18 -157.37)"/><path class="cls-11" d="M1302.88,354.24v.81a5,5,0,0,1-.27.93v-.81a5.44,5.44,0,0,0,.27-.93" transform="translate(-1189.18 -157.37)"/><path class="cls-12" d="M1302.61,355.17V356a6.14,6.14,0,0,1-.44.94v-.81a5.67,5.67,0,0,0,.44-.94" transform="translate(-1189.18 -157.37)"/><path class="cls-13" d="M1302.17,356.11v.81a7.74,7.74,0,0,1-.66,1v-.82a7.32,7.32,0,0,0,.66-1" transform="translate(-1189.18 -157.37)"/><path class="cls-14" d="M1301.51,357.09v.82a11.47,11.47,0,0,1-1,1.1v-.82a9.5,9.5,0,0,0,1-1.1" transform="translate(-1189.18 -157.37)"/><path class="cls-15" d="M1300.49,358.19V359a13.36,13.36,0,0,1-2.08,1.54v-.82a12.34,12.34,0,0,0,2.08-1.54" transform="translate(-1189.18 -157.37)"/><path class="cls-16" d="M1298.41,359.73v.82l-.2.12a19,19,0,0,1-3.61,1.58v-.82a18,18,0,0,0,3.6-1.58l.2-.12" transform="translate(-1189.18 -157.37)"/><path class="cls-15" d="M1294.61,361.43v.82a25.41,25.41,0,0,1-3.12.78v-.82a22.73,22.73,0,0,0,3.13-.78" transform="translate(-1189.18 -157.37)"/><path class="cls-14" d="M1291.48,362.21V363c-.69.12-1.4.22-2.11.29v-.81c.71-.08,1.41-.17,2.1-.3" transform="translate(-1189.18 -157.37)"/><path class="cls-13" d="M1289.38,362.51v.81c-.6.06-1.22.1-1.83.12v-.81c.62,0,1.23-.06,1.84-.12" transform="translate(-1189.18 -157.37)"/><path class="cls-12" d="M1287.54,362.63v.81c-.57,0-1.13,0-1.7,0v-.81c.56,0,1.13,0,1.69,0" transform="translate(-1189.18 -157.37)"/><path class="cls-11" d="M1285.85,362.64v.81c-.54,0-1.08,0-1.63-.09v-.81c.54,0,1.08.07,1.63.09" transform="translate(-1189.18 -157.37)"/><path class="cls-10" d="M1284.22,362.55v.81c-.54,0-1.07-.1-1.6-.18v-.81c.53.07,1.07.13,1.61.18" transform="translate(-1189.18 -157.37)"/><path class="cls-9" d="M1282.61,362.37v.81c-.56-.07-1.1-.17-1.64-.28v-.82c.54.12,1.09.21,1.64.29" transform="translate(-1189.18 -157.37)"/><path class="cls-26" d="M1281,362.08v.82c-.59-.12-1.16-.26-1.73-.42v-.82c.56.16,1.13.3,1.72.42" transform="translate(-1189.18 -157.37)"/><path class="cls-27" d="M1279.25,361.66v.82c-.68-.2-1.35-.42-2-.68V361c.65.25,1.32.48,2,.67" transform="translate(-1189.18 -157.37)"/><path class="cls-20" d="M1277.24,361v.81a17.88,17.88,0,0,1-2.37-1.14c-3.25-1.87-4.87-4.34-4.86-6.8V353c0,2.47,1.62,4.93,4.86,6.81a17.88,17.88,0,0,0,2.37,1.14" transform="translate(-1189.18 -157.37)"/></g></g></g><path class="cls-47" d="M1298.13,346.33c6.45,3.73,6.49,9.79.08,13.52s-16.88,3.72-23.34,0-6.49-9.79-.07-13.52S1291.68,342.61,1298.13,346.33Z" transform="translate(-1189.18 -157.37)"/><g class="cls-5"><g class="cls-48"><g class="cls-5"><path d="M1306,353.15v0" transform="translate(-1189.18 -157.37)"/><path d="M1306,353.32v.81a7.25,7.25,0,0,1-.13,1.13v-.82a6.11,6.11,0,0,0,.13-1.12" transform="translate(-1189.18 -157.37)"/><path d="M1305.86,354.44v.82a6.8,6.8,0,0,1-.32,1.1v-.82a7.21,7.21,0,0,0,.31-1.1" transform="translate(-1189.18 -157.37)"/><path d="M1305.55,355.54v.82a7.91,7.91,0,0,1-.52,1.11v-.82a9.23,9.23,0,0,0,.52-1.11" transform="translate(-1189.18 -157.37)"/><path d="M1305,356.65v.82a9.06,9.06,0,0,1-.78,1.16v-.81a10.45,10.45,0,0,0,.79-1.17" transform="translate(-1189.18 -157.37)"/><path d="M1304.24,357.82v.81a10.43,10.43,0,0,1-1.21,1.3v-.81a11.18,11.18,0,0,0,1.21-1.3" transform="translate(-1189.18 -157.37)"/><path d="M1303,359.12v.81a15.09,15.09,0,0,1-2.46,1.82v-.81a15.7,15.7,0,0,0,2.46-1.82" transform="translate(-1189.18 -157.37)"/><path d="M1300.57,360.94v.81l-.24.14a21.64,21.64,0,0,1-4.26,1.88V363a21.62,21.62,0,0,0,4.26-1.87l.24-.14" transform="translate(-1189.18 -157.37)"/><path d="M1296.07,363v.82a28.84,28.84,0,0,1-3.69.92v-.82a27.26,27.26,0,0,0,3.69-.92" transform="translate(-1189.18 -157.37)"/><path d="M1292.38,363.87v.82c-.82.14-1.65.26-2.49.34v-.81c.84-.09,1.67-.2,2.49-.35" transform="translate(-1189.18 -157.37)"/><path d="M1289.89,364.22V365c-.72.07-1.45.12-2.17.15v-.82c.73,0,1.45-.07,2.17-.14" transform="translate(-1189.18 -157.37)"/><path d="M1287.72,364.36v.82c-.67,0-1.34,0-2,0v-.82c.66,0,1.33,0,2,0" transform="translate(-1189.18 -157.37)"/><path d="M1285.72,364.37v.82c-.65,0-1.29-.05-1.93-.11v-.81c.64.05,1.28.09,1.93.1" transform="translate(-1189.18 -157.37)"/><path d="M1283.79,364.27v.81c-.64-.05-1.27-.12-1.9-.21v-.81c.63.09,1.26.16,1.9.21" transform="translate(-1189.18 -157.37)"/><path d="M1281.89,364.06v.81c-.65-.09-1.3-.2-1.94-.34v-.81c.63.13,1.28.24,1.93.34" transform="translate(-1189.18 -157.37)"/><path d="M1280,363.72v.81c-.69-.14-1.37-.3-2-.49v-.82c.67.19,1.35.36,2,.5" transform="translate(-1189.18 -157.37)"/><path d="M1277.92,363.22V364c-.81-.24-1.6-.5-2.37-.8v-.82c.76.3,1.55.57,2.36.8" transform="translate(-1189.18 -157.37)"/><path d="M1275.56,362.42v.82a21.28,21.28,0,0,1-2.8-1.35c-3.84-2.21-5.75-5.12-5.74-8V353c0,2.91,1.91,5.82,5.74,8a22.06,22.06,0,0,0,2.81,1.34" transform="translate(-1189.18 -157.37)"/></g></g></g><path d="M1300.24,345.1c7.63,4.41,7.67,11.57.09,16s-19.95,4.4-27.58,0-7.66-11.57-.08-16S1292.62,340.7,1300.24,345.1Zm-25.37,14.75c6.46,3.72,16.92,3.73,23.34,0s6.37-9.79-.08-13.52-16.92-3.72-23.33,0-6.38,9.79.07,13.52" transform="translate(-1189.18 -157.37)"/></g></g><g id="Слой_5" data-name="Слой 5"><g class="cls-5"><g class="cls-5"><g class="cls-49"><g class="cls-5"><path d="M1526.74,201.13v.81a2,2,0,0,1-1.18-1.64v-.82a2,2,0,0,0,1.18,1.65" transform="translate(-1189.18 -157.37)"/></g></g></g><polygon points="360.44 56.96 360.44 57.78 337.56 44.57 337.56 43.76 360.44 56.96"/><g class="cls-5"><g class="cls-50"><g class="cls-5"><path d="M1556.44,212.71v0" transform="translate(-1189.18 -157.37)"/><path d="M1556.44,212.75v.81a.85.85,0,0,1,0,.23V213a1,1,0,0,0,0-.23" transform="translate(-1189.18 -157.37)"/><path d="M1556.41,213v.81a1,1,0,0,1-.06.23v-.82a.9.9,0,0,0,.06-.22" transform="translate(-1189.18 -157.37)"/><path d="M1556.35,213.2V214l-.11.22v-.81a1.2,1.2,0,0,0,.11-.23" transform="translate(-1189.18 -157.37)"/><path d="M1556.24,213.43v.81a1.67,1.67,0,0,1-.16.24v-.81a1.67,1.67,0,0,0,.16-.24" transform="translate(-1189.18 -157.37)"/><path d="M1556.08,213.67v.81a2.05,2.05,0,0,1-.25.27v-.82a2,2,0,0,0,.24-.26" transform="translate(-1189.18 -157.37)"/><path d="M1555.84,213.93v.82a2.82,2.82,0,0,1-.5.37v-.81a4.23,4.23,0,0,0,.51-.38" transform="translate(-1189.18 -157.37)"/><path d="M1555.33,214.31v.81l0,0a4.12,4.12,0,0,1-.88.39v-.82a4.67,4.67,0,0,0,.88-.38l0,0" transform="translate(-1189.18 -157.37)"/><path d="M1554.4,214.72v.82a6,6,0,0,1-.76.19v-.82a5.88,5.88,0,0,0,.75-.19" transform="translate(-1189.18 -157.37)"/><path d="M1553.65,214.91v.82l-.51.07V215l.52-.07" transform="translate(-1189.18 -157.37)"/><path d="M1553.13,215v.82l-.44,0V215a3.15,3.15,0,0,0,.44,0" transform="translate(-1189.18 -157.37)"/><path d="M1552.69,215v.82h-.41V215a2.81,2.81,0,0,0,.41,0" transform="translate(-1189.18 -157.37)"/><path d="M1552.28,215v.82l-.39,0V215l.39,0" transform="translate(-1189.18 -157.37)"/><path d="M1551.89,215v.82l-.39-.05V215l.39,0" transform="translate(-1189.18 -157.37)"/><path d="M1551.5,215v.81a2.57,2.57,0,0,1-.4-.07v-.81l.4.07" transform="translate(-1189.18 -157.37)"/><path d="M1551.1,214.88v.81a3.2,3.2,0,0,1-.42-.1v-.81l.42.1" transform="translate(-1189.18 -157.37)"/><path d="M1550.68,214.78v.81c-.17-.05-.33-.1-.48-.16v-.82l.48.17" transform="translate(-1189.18 -157.37)"/><path d="M1550.2,214.61v.82a3.46,3.46,0,0,1-.58-.28v-.81a4.43,4.43,0,0,0,.58.27" transform="translate(-1189.18 -157.37)"/></g></g></g><path d="M1555.26,211.06c1.57.91,1.58,2.37,0,3.28a6.27,6.27,0,0,1-5.66,0l-22.88-13.21c-1.56-.91-1.57-2.37,0-3.28a6.25,6.25,0,0,1,5.65,0Z" transform="translate(-1189.18 -157.37)"/></g></g><g id="Слой_6" data-name="Слой 6"><g class="cls-5"><g class="cls-5"><g class="cls-51"><g class="cls-5"><path d="M1249,378.27l.71-.41a1,1,0,0,1,.23-.11l-.71.41a1.2,1.2,0,0,0-.23.11" transform="translate(-1189.18 -157.37)"/><path d="M1249.24,378.16l.71-.41.2-.06-.71.41-.2.06" transform="translate(-1189.18 -157.37)"/><path d="M1249.44,378.1l.71-.41.16,0-.7.41-.17,0" transform="translate(-1189.18 -157.37)"/><path d="M1249.61,378.08l.7-.41h.15l-.71.41h-.14" transform="translate(-1189.18 -157.37)"/><path d="M1249.75,378.07l.71-.41h.13l-.7.41h-.14" transform="translate(-1189.18 -157.37)"/><path d="M1249.89,378.08l.7-.41h.13l-.71.41h-.12" transform="translate(-1189.18 -157.37)"/><path d="M1250,378.09l.71-.41.12,0-.7.41-.13,0" transform="translate(-1189.18 -157.37)"/><path d="M1250.14,378.11l.7-.41.12,0-.71.41-.11,0" transform="translate(-1189.18 -157.37)"/><path d="M1250.25,378.14l.71-.41.11,0-.7.41-.12,0" transform="translate(-1189.18 -157.37)"/><path d="M1250.37,378.17l.7-.41.12,0-.71.41-.11,0" transform="translate(-1189.18 -157.37)"/><path d="M1250.48,378.21l.71-.41.11,0-.7.41-.12,0" transform="translate(-1189.18 -157.37)"/><path d="M1250.6,378.25l.7-.41.12.05-.71.41-.11-.05" transform="translate(-1189.18 -157.37)"/><path d="M1250.71,378.3l.71-.41.11.05-.7.41-.12-.05" transform="translate(-1189.18 -157.37)"/><path d="M1250.83,378.35l.7-.41.12.06-.71.41-.11-.06" transform="translate(-1189.18 -157.37)"/><path d="M1250.94,378.41l.71-.41.09.05-.71.41-.09,0" transform="translate(-1189.18 -157.37)"/></g></g></g><g class="cls-5"><g class="cls-52"><g class="cls-5"><polyline points="90.93 241.96 91.64 241.55 91.64 241.56 90.93 241.96 90.93 241.96"/><path d="M1280.11,399.34l.7-.41v.13l-.71.41a.57.57,0,0,0,0-.13" transform="translate(-1189.18 -157.37)"/><path d="M1280.1,399.47l.71-.41c0,.05,0,.09,0,.14l-.7.41v-.14" transform="translate(-1189.18 -157.37)"/><path d="M1280.1,399.61l.7-.41c0,.05,0,.09,0,.14l-.71.41c0-.05,0-.1,0-.14" transform="translate(-1189.18 -157.37)"/><path d="M1280.08,399.75l.71-.41a.59.59,0,0,0,0,.13l-.71.41a.59.59,0,0,0,0-.13" transform="translate(-1189.18 -157.37)"/><path d="M1280.06,399.88l.71-.41,0,.14-.71.41,0-.14" transform="translate(-1189.18 -157.37)"/><path d="M1280,400l.71-.41c0,.05,0,.1,0,.15l-.7.41,0-.15" transform="translate(-1189.18 -157.37)"/><path d="M1280,400.17l.7-.41a.88.88,0,0,1,0,.15l-.7.41a.88.88,0,0,1,0-.15" transform="translate(-1189.18 -157.37)"/><path d="M1280,400.32l.7-.41a1.11,1.11,0,0,1-.07.16l-.7.41.07-.16" transform="translate(-1189.18 -157.37)"/><path d="M1279.88,400.48l.7-.41c0,.07-.07.13-.1.19l-.71.41a1.18,1.18,0,0,0,.11-.19" transform="translate(-1189.18 -157.37)"/><path d="M1279.77,400.67l.71-.41a1.43,1.43,0,0,1-.5.48l-.7.41a1.4,1.4,0,0,0,.49-.48" transform="translate(-1189.18 -157.37)"/></g></g></g><polygon points="90.93 241.14 91.64 240.73 91.64 241.55 90.93 241.96 90.93 241.14"/><polygon points="61.85 221.09 62.56 220.68 88.81 235.84 88.11 236.25 61.85 221.09"/><g class="cls-5"><g class="cls-53"><g class="cls-5"><path d="M1277.28,393.62l.71-.41,0,0-.71.41,0,0" transform="translate(-1189.18 -157.37)"/><path d="M1277.31,393.64l.71-.41.12.07-.71.41-.12-.07" transform="translate(-1189.18 -157.37)"/><path d="M1277.43,393.71l.71-.41.12.08-.71.41-.12-.08" transform="translate(-1189.18 -157.37)"/><path d="M1277.55,393.79l.71-.41.12.09-.7.41-.13-.09" transform="translate(-1189.18 -157.37)"/><path d="M1277.68,393.88l.7-.41.12.09-.7.41-.12-.09" transform="translate(-1189.18 -157.37)"/><path d="M1277.8,394l.7-.41.13.1-.7.41-.13-.1" transform="translate(-1189.18 -157.37)"/><path d="M1277.93,394.07l.7-.41a.69.69,0,0,0,.13.11l-.71.41-.12-.11" transform="translate(-1189.18 -157.37)"/><path d="M1278.05,394.18l.71-.41.12.12-.7.41-.13-.12" transform="translate(-1189.18 -157.37)"/><path d="M1278.18,394.3l.7-.41.12.12-.7.41-.12-.12" transform="translate(-1189.18 -157.37)"/><path d="M1278.3,394.42l.7-.41.12.12-.71.41-.11-.12" transform="translate(-1189.18 -157.37)"/><path d="M1278.41,394.54l.71-.41.11.12-.71.41-.11-.12" transform="translate(-1189.18 -157.37)"/><path class="cls-54" d="M1278.52,394.66l.71-.41.11.13-.71.41-.11-.13" transform="translate(-1189.18 -157.37)"/><path class="cls-55" d="M1278.63,394.79l.71-.41.11.13-.71.41-.11-.13" transform="translate(-1189.18 -157.37)"/><path class="cls-56" d="M1278.74,394.92l.71-.41.12.17-.7.41-.13-.17" transform="translate(-1189.18 -157.37)"/><path class="cls-57" d="M1278.87,395.09l.7-.41.18.26-.7.41-.18-.26" transform="translate(-1189.18 -157.37)"/><path class="cls-58" d="M1279.05,395.35l.7-.41c.07.11.15.22.21.33l-.7.41-.21-.33" transform="translate(-1189.18 -157.37)"/><path class="cls-57" d="M1279.26,395.68l.7-.41.14.25-.7.41-.14-.25" transform="translate(-1189.18 -157.37)"/><path class="cls-56" d="M1279.4,395.93l.7-.41.09.17-.7.41-.09-.17" transform="translate(-1189.18 -157.37)"/><path class="cls-55" d="M1279.49,396.1l.7-.41.07.15-.7.41a1,1,0,0,1-.07-.15" transform="translate(-1189.18 -157.37)"/><path class="cls-54" d="M1279.56,396.25l.7-.41.06.14-.7.41-.06-.14" transform="translate(-1189.18 -157.37)"/><path d="M1279.62,396.39l.7-.41.06.13-.7.41-.06-.13" transform="translate(-1189.18 -157.37)"/><path d="M1279.68,396.52l.7-.41.06.14-.71.41a1.21,1.21,0,0,0,0-.14" transform="translate(-1189.18 -157.37)"/><path d="M1279.73,396.66l.71-.41,0,.14-.7.41-.06-.14" transform="translate(-1189.18 -157.37)"/><path d="M1279.79,396.8l.7-.41,0,.15-.7.4a.58.58,0,0,1,0-.14" transform="translate(-1189.18 -157.37)"/><path d="M1279.84,396.94l.7-.4s0,.09,0,.14l-.71.41s0-.1,0-.15" transform="translate(-1189.18 -157.37)"/><path d="M1279.88,397.09l.71-.41c0,.05,0,.1,0,.15l-.7.41,0-.15" transform="translate(-1189.18 -157.37)"/><path d="M1279.93,397.24l.7-.41a.83.83,0,0,1,0,.15l-.7.41a.83.83,0,0,1,0-.15" transform="translate(-1189.18 -157.37)"/><path d="M1280,397.39l.7-.41a.83.83,0,0,0,0,.15l-.71.41,0-.15" transform="translate(-1189.18 -157.37)"/><path d="M1280,397.54l.71-.41,0,.15-.71.41,0-.15" transform="translate(-1189.18 -157.37)"/><path d="M1280,397.69l.71-.41a.68.68,0,0,0,0,.14l-.7.41,0-.14" transform="translate(-1189.18 -157.37)"/><path d="M1280.06,397.83l.7-.41c0,.05,0,.1,0,.14l-.7.41a.59.59,0,0,1,0-.14" transform="translate(-1189.18 -157.37)"/><path d="M1280.08,398l.7-.41c0,.05,0,.1,0,.14l-.71.41s0-.09,0-.14" transform="translate(-1189.18 -157.37)"/><path d="M1280.09,398.11l.71-.41a.66.66,0,0,0,0,.14l-.71.41a.66.66,0,0,0,0-.14" transform="translate(-1189.18 -157.37)"/><path d="M1280.1,398.25l.71-.41V398l-.7.41a.61.61,0,0,0,0-.14" transform="translate(-1189.18 -157.37)"/><path d="M1280.11,398.39l.7-.41s0,.08,0,.12l-.71.41v-.12" transform="translate(-1189.18 -157.37)"/></g></g></g><path d="M1277.28,393.62a6.21,6.21,0,0,1,2.83,4.89v.82c0,1.8-1.28,2.53-2.85,1.63L1251,385.8a6.26,6.26,0,0,1-2.83-4.9v-.82c0-1.79,1.28-2.52,2.84-1.62Z" transform="translate(-1189.18 -157.37)"/></g><g class="cls-5"><g class="cls-5"><g class="cls-59"><g class="cls-5"><path d="M1215.14,358.88l.7-.41a1.51,1.51,0,0,1,.29-.13l-.71.41a1.43,1.43,0,0,0-.28.13" transform="translate(-1189.18 -157.37)"/><path d="M1215.42,358.75l.71-.41.25-.07-.71.41-.25.07" transform="translate(-1189.18 -157.37)"/><path d="M1215.67,358.68l.71-.41.2,0-.7.41-.21,0" transform="translate(-1189.18 -157.37)"/><path d="M1215.88,358.65l.7-.41h.18l-.7.41h-.18" transform="translate(-1189.18 -157.37)"/><path d="M1216.06,358.64l.7-.41h.17l-.7.41h-.17" transform="translate(-1189.18 -157.37)"/><path d="M1216.23,358.65l.7-.41h.16l-.71.41h-.15" transform="translate(-1189.18 -157.37)"/><path d="M1216.38,358.66l.71-.41.15,0-.7.41-.16,0" transform="translate(-1189.18 -157.37)"/><path d="M1216.54,358.69l.7-.41.15,0-.7.41-.15,0" transform="translate(-1189.18 -157.37)"/><path d="M1216.69,358.72l.7-.41.15,0-.71.41-.14,0" transform="translate(-1189.18 -157.37)"/><path d="M1216.83,358.76l.71-.41.14,0-.71.41-.14-.05" transform="translate(-1189.18 -157.37)"/><path d="M1217,358.81l.71-.41.14.05-.7.41-.15-.05" transform="translate(-1189.18 -157.37)"/><path d="M1217.12,358.86l.7-.41.14.06-.7.41-.14-.06" transform="translate(-1189.18 -157.37)"/><path d="M1217.26,358.92l.7-.41.15.07-.71.41-.14-.07" transform="translate(-1189.18 -157.37)"/><path d="M1217.4,359l.71-.41.14.08-.7.4-.15-.07" transform="translate(-1189.18 -157.37)"/><path d="M1217.55,359.06l.7-.4.12.06-.71.41-.11-.07" transform="translate(-1189.18 -157.37)"/></g></g></g><g class="cls-5"><g class="cls-60"><g class="cls-5"><path d="M1217.66,359.13l.71-.41,0,0-.7.41,0,0" transform="translate(-1189.18 -157.37)"/><path d="M1217.7,359.15l.7-.41.15.09-.7.41-.15-.09" transform="translate(-1189.18 -157.37)"/><path d="M1217.85,359.24l.7-.41.15.1-.7.41-.15-.1" transform="translate(-1189.18 -157.37)"/><path d="M1218,359.34l.7-.41.16.11-.71.41-.15-.11" transform="translate(-1189.18 -157.37)"/><path d="M1218.15,359.45l.71-.41.15.12-.7.41-.16-.12" transform="translate(-1189.18 -157.37)"/><path d="M1218.31,359.57l.7-.41.16.13-.71.41-.15-.13" transform="translate(-1189.18 -157.37)"/><path d="M1218.46,359.7l.71-.41.16.13-.71.41-.16-.13" transform="translate(-1189.18 -157.37)"/><path d="M1218.62,359.83l.71-.41.15.15-.7.41-.16-.15" transform="translate(-1189.18 -157.37)"/><path d="M1218.78,360l.7-.41.15.15-.7.41-.15-.15" transform="translate(-1189.18 -157.37)"/><path d="M1218.93,360.13l.7-.41.15.15-.71.41-.14-.15" transform="translate(-1189.18 -157.37)"/><path d="M1219.07,360.28l.71-.41.13.15-.7.41-.14-.15" transform="translate(-1189.18 -157.37)"/><path class="cls-54" d="M1219.21,360.43l.7-.41.14.16-.71.41-.13-.16" transform="translate(-1189.18 -157.37)"/><path class="cls-55" d="M1219.34,360.59l.71-.41.14.17-.71.41a2.09,2.09,0,0,0-.14-.17" transform="translate(-1189.18 -157.37)"/><path class="cls-56" d="M1219.48,360.76l.71-.41.15.21-.7.41-.16-.21" transform="translate(-1189.18 -157.37)"/><path class="cls-57" d="M1219.64,361l.7-.41a3.71,3.71,0,0,1,.23.32l-.71.4c-.07-.1-.14-.21-.22-.31" transform="translate(-1189.18 -157.37)"/><path class="cls-58" d="M1219.86,361.28l.71-.4c.09.13.18.27.26.41l-.7.41-.27-.42" transform="translate(-1189.18 -157.37)"/><path class="cls-57" d="M1220.13,361.7l.7-.41.17.31-.7.41-.17-.31" transform="translate(-1189.18 -157.37)"/><path class="cls-56" d="M1220.3,362l.7-.41.11.22-.7.41c0-.07-.07-.15-.11-.22" transform="translate(-1189.18 -157.37)"/><path class="cls-55" d="M1220.41,362.23l.7-.41a.76.76,0,0,1,.09.18l-.7.41-.09-.18" transform="translate(-1189.18 -157.37)"/><path class="cls-54" d="M1220.5,362.41l.7-.41a1.42,1.42,0,0,1,.08.18l-.7.41-.08-.18" transform="translate(-1189.18 -157.37)"/><path d="M1220.58,362.59l.7-.41c0,.05,0,.11.08.16l-.71.41-.07-.16" transform="translate(-1189.18 -157.37)"/><path d="M1220.65,362.75l.71-.41.06.18-.7.41-.07-.18" transform="translate(-1189.18 -157.37)"/><path d="M1220.72,362.93l.7-.41a.87.87,0,0,1,.07.17l-.7.41c0-.06,0-.12-.07-.17" transform="translate(-1189.18 -157.37)"/><path d="M1220.79,363.1l.7-.41.06.18-.7.41-.06-.18" transform="translate(-1189.18 -157.37)"/><path d="M1220.85,363.28l.7-.41.06.19-.7.41-.06-.19" transform="translate(-1189.18 -157.37)"/><path d="M1220.91,363.47l.7-.41.06.18-.71.41c0-.06,0-.12,0-.18" transform="translate(-1189.18 -157.37)"/><path d="M1221,363.65l.71-.41a1.05,1.05,0,0,0,0,.19l-.71.41a1.8,1.8,0,0,0,0-.19" transform="translate(-1189.18 -157.37)"/><path d="M1221,363.84l.71-.41c0,.06,0,.13,0,.19l-.7.41c0-.06,0-.13,0-.19" transform="translate(-1189.18 -157.37)"/><path d="M1221.06,364l.7-.41c0,.06,0,.12,0,.18l-.71.41,0-.18" transform="translate(-1189.18 -157.37)"/><path d="M1221.09,364.21l.71-.41,0,.18-.71.41,0-.18" transform="translate(-1189.18 -157.37)"/><path d="M1221.12,364.39l.71-.41a1.1,1.1,0,0,1,0,.18l-.7.41,0-.18" transform="translate(-1189.18 -157.37)"/><path d="M1221.15,364.57l.7-.41a1.1,1.1,0,0,1,0,.18l-.7.41c0-.06,0-.12,0-.18" transform="translate(-1189.18 -157.37)"/><path d="M1221.17,364.75l.7-.41c0,.05,0,.11,0,.17l-.71.41c0-.06,0-.12,0-.17" transform="translate(-1189.18 -157.37)"/><path d="M1221.18,364.92l.71-.41a.91.91,0,0,0,0,.17l-.71.41a1,1,0,0,0,0-.17" transform="translate(-1189.18 -157.37)"/><path d="M1221.19,365.09l.71-.41v.16h0l-.71.41h0v-.16" transform="translate(-1189.18 -157.37)"/><path d="M1221.19,365.26l.71-.41a1.09,1.09,0,0,1,0,.18l-.7.4v-.17" transform="translate(-1189.18 -157.37)"/><path d="M1221.19,365.43l.7-.4a.86.86,0,0,1,0,.16l-.7.41c0-.05,0-.11,0-.17" transform="translate(-1189.18 -157.37)"/><path d="M1221.18,365.6l.7-.41c0,.06,0,.12,0,.17l-.71.41s0-.11,0-.17" transform="translate(-1189.18 -157.37)"/><path d="M1221.16,365.77l.71-.41,0,.17-.7.41a1.11,1.11,0,0,1,0-.17" transform="translate(-1189.18 -157.37)"/><path d="M1221.14,365.94l.7-.41,0,.18-.71.41a1.16,1.16,0,0,1,0-.18" transform="translate(-1189.18 -157.37)"/><path d="M1221.1,366.12l.71-.41c0,.06,0,.12,0,.18l-.71.41a1.21,1.21,0,0,0,0-.18" transform="translate(-1189.18 -157.37)"/><path d="M1221.05,366.3l.71-.41-.06.19-.71.41.06-.19" transform="translate(-1189.18 -157.37)"/><path d="M1221,366.49l.71-.41-.09.2-.7.41a1.67,1.67,0,0,0,.08-.2" transform="translate(-1189.18 -157.37)"/><path d="M1220.91,366.69l.7-.41c0,.08-.08.16-.13.24l-.71.41c0-.08.1-.16.14-.24" transform="translate(-1189.18 -157.37)"/><path d="M1220.77,366.93l.71-.41a1.77,1.77,0,0,1-.62.6l-.7.41a1.75,1.75,0,0,0,.61-.6" transform="translate(-1189.18 -157.37)"/></g></g></g><path d="M1217.66,359.13a7.77,7.77,0,0,1,3.53,6.12c0,2.25-1.59,3.16-3.55,2a7.78,7.78,0,0,1-3.54-6.12C1214.11,358.9,1215.7,358,1217.66,359.13Z" transform="translate(-1189.18 -157.37)"/></g></g></svg>