<svg xmlns="http://www.w3.org/2000/svg" xmlns:xlink="http://www.w3.org/1999/xlink" viewBox="0 0 340.7 202.03"><defs><style>.cls-1{fill:none;}.cls-2{isolation:isolate;}.cls-3{fill:#562ca8;}.cls-4{fill:#442493;}.cls-5{fill:#6930c3;}.cls-6{clip-path:url(#clip-path);}.cls-7{clip-path:url(#clip-path-2);}.cls-8{fill:#3d1c71;}.cls-9{fill:#3f1d75;}.cls-10{fill:#411e79;}.cls-11{fill:#431f7d;}.cls-12{fill:#452081;}.cls-13{fill:#472185;}.cls-14{fill:#4a2288;}.cls-15{fill:#4c238c;}.cls-16{clip-path:url(#clip-path-3);}.cls-17{fill:#3b1b6d;}.cls-18{fill:#391a69;}.cls-19{fill:#371965;}.cls-20{fill:#5a29a8;}.cls-21{clip-path:url(#clip-path-4);}.cls-22,.cls-23{fill:#4250d1;}.cls-23{stroke:#000;stroke-miterlimit:10;}.cls-24{clip-path:url(#clip-path-5);}.cls-25{clip-path:url(#clip-path-6);}.cls-26{fill:#381a69;}.cls-27{fill:#512596;}.cls-28{clip-path:url(#clip-path-7);}.cls-29{clip-path:url(#clip-path-8);}.cls-30{clip-path:url(#clip-path-9);}.cls-31{clip-path:url(#clip-path-10);}.cls-32{clip-path:url(#clip-path-11);}.cls-33{clip-path:url(#clip-path-12);}.cls-34{clip-path:url(#clip-path-13);}.cls-35{clip-path:url(#clip-path-14);}.cls-36{clip-path:url(#clip-path-15);}.cls-37{clip-path:url(#clip-path-16);}.cls-38{clip-path:url(#clip-path-17);}.cls-39{clip-path:url(#clip-path-18);}.cls-40{clip-path:url(#clip-path-19);}.cls-41{clip-path:url(#clip-path-20);}.cls-42{clip-path:url(#clip-path-21);}.cls-43{clip-path:url(#clip-path-22);}.cls-44{clip-path:url(#clip-path-23);}.cls-45{clip-path:url(#clip-path-24);}.cls-46{clip-path:url(#clip-path-25);}.cls-47{clip-path:url(#clip-path-26);}.cls-48{clip-path:url(#clip-path-27);}.cls-49{clip-path:url(#clip-path-28);}.cls-50{clip-path:url(#clip-path-29);}.cls-51{clip-path:url(#clip-path-30);}.cls-52{clip-path:url(#clip-path-31);}.cls-53{clip-path:url(#clip-path-32);}.cls-54{clip-path:url(#clip-path-33);}.cls-55{clip-path:url(#clip-path-34);}</style><clipPath id="clip-path" transform="translate(-1258.46 -173.58)"><path class="cls-1" d="M1571,249.61v.82a3.52,3.52,0,0,0-2.06-2.89,11,11,0,0,0-9.91,0,3.48,3.48,0,0,0-2,2.85v-.82a3.47,3.47,0,0,1,2-2.84,10.93,10.93,0,0,1,9.9,0A3.49,3.49,0,0,1,1571,249.61Z"/></clipPath><clipPath id="clip-path-2" transform="translate(-1258.46 -173.58)"><path class="cls-1" d="M1569,253.28v-.82a3.46,3.46,0,0,0,2-2.85v.82A3.48,3.48,0,0,1,1569,253.28Z"/></clipPath><clipPath id="clip-path-3" transform="translate(-1258.46 -173.58)"><path class="cls-1" d="M1559.07,253.28a3.53,3.53,0,0,1-2.07-2.89v-.82a3.5,3.5,0,0,0,2.07,2.89v0a10.93,10.93,0,0,0,9.9,0v.82h0A10.93,10.93,0,0,1,1559.07,253.28Z"/></clipPath><clipPath id="clip-path-4" transform="translate(-1258.46 -173.58)"><path class="cls-1" d="M1573,249.62v.82c0,1.32-.88,2.65-2.61,3.66a14.07,14.07,0,0,1-12.73,0c-1.78-1-2.66-2.37-2.66-3.72v-.81c0,1.34.88,2.69,2.65,3.71a14.07,14.07,0,0,0,12.73,0C1572.13,252.27,1573,251,1573,249.62Z"/></clipPath><clipPath id="clip-path-5" transform="translate(-1258.46 -173.58)"><path class="cls-1" d="M1408.7,241.19v-4.07a3.57,3.57,0,0,0,2.1,2.93v4.08A3.54,3.54,0,0,1,1408.7,241.19Z"/></clipPath><clipPath id="clip-path-6" transform="translate(-1258.46 -173.58)"><path class="cls-1" d="M1535.3,281.81v4.07a3.52,3.52,0,0,1-2.06,2.89v-4.08A3.51,3.51,0,0,0,1535.3,281.81Z"/></clipPath><clipPath id="clip-path-7" transform="translate(-1258.46 -173.58)"><path class="cls-1" d="M1515.77,294.85l0,4.07a11,11,0,0,1-10,0v-4.07A11.09,11.09,0,0,0,1515.77,294.85Z"/></clipPath><clipPath id="clip-path-8" transform="translate(-1258.46 -173.58)"><path class="cls-1" d="M1491.14,301.29v-4.07a1.53,1.53,0,0,0,.8,1.43v4.08A1.54,1.54,0,0,1,1491.14,301.29Z"/></clipPath><clipPath id="clip-path-9" transform="translate(-1258.46 -173.58)"><path class="cls-1" d="M1507,295.36v4.08c-9.21,3.66-13.46,4.2-15,3.29v-4.08C1493.53,299.56,1497.78,299,1507,295.36Z"/></clipPath><clipPath id="clip-path-10" transform="translate(-1258.46 -173.58)"><path class="cls-1" d="M1258.46,299.56v-4.08c0,1.62,1.07,3.25,3.21,4.48V304C1259.53,302.8,1258.46,301.18,1258.46,299.56Z"/></clipPath><clipPath id="clip-path-11" transform="translate(-1258.46 -173.58)"><path class="cls-1" d="M1469.54,325.44v4.08c0,1.6-1.06,3.2-3.16,4.42v-4.08C1468.48,328.64,1469.53,327,1469.54,325.44Z"/></clipPath><clipPath id="clip-path-12" transform="translate(-1258.46 -173.58)"><path class="cls-1" d="M1397.84,369.7l0,4.07a16.93,16.93,0,0,1-15.37,0V369.7A17,17,0,0,0,1397.84,369.7Z"/></clipPath><clipPath id="clip-path-13" transform="translate(-1258.46 -173.58)"><path class="cls-1" d="M1416.5,307.12v.82c0-1.35-.88-2.69-2.65-3.72a14.07,14.07,0,0,0-12.73,0c-1.74,1-2.61,2.34-2.62,3.66v-.81c0-1.33.87-2.65,2.61-3.66a14,14,0,0,1,12.73,0C1415.62,304.43,1416.5,305.78,1416.5,307.12Z"/></clipPath><clipPath id="clip-path-14" transform="translate(-1258.46 -173.58)"><path class="cls-1" d="M1421.5,307.13V308c0,2.06-1.36,4.12-4.06,5.69-5.44,3.16-14.32,3.17-19.8,0-2.75-1.6-4.13-3.69-4.12-5.78v-.82c0,2.1,1.37,4.19,4.12,5.78,5.48,3.16,14.36,3.16,19.8,0C1420.14,311.26,1421.49,309.2,1421.5,307.13Z"/></clipPath><clipPath id="clip-path-15" transform="translate(-1258.46 -173.58)"><path class="cls-1" d="M1426,337.62v.81c0-1.34-.89-2.69-2.66-3.71a14.07,14.07,0,0,0-12.73,0c-1.73,1-2.6,2.33-2.6,3.66v-.82c0-1.32.87-2.65,2.61-3.66a14,14,0,0,1,12.72,0C1425.12,334.93,1426,336.27,1426,337.62Z"/></clipPath><clipPath id="clip-path-16" transform="translate(-1258.46 -173.58)"><path class="cls-1" d="M1431,337.63v.82c0,2.06-1.36,4.12-4.07,5.69-5.44,3.16-14.32,3.16-19.8,0-2.76-1.59-4.13-3.68-4.13-5.77v-.81c0,2.08,1.37,4.18,4.12,5.77,5.48,3.16,14.36,3.16,19.81,0C1429.64,341.76,1431,339.69,1431,337.63Z"/></clipPath><clipPath id="clip-path-17" transform="translate(-1258.46 -173.58)"><path class="cls-1" d="M1336.06,261.94v.82a.87.87,0,0,0-.8,0v-.82A.87.87,0,0,1,1336.06,261.94Z"/></clipPath><clipPath id="clip-path-18" transform="translate(-1258.46 -173.58)"><path class="cls-1" d="M1332.37,264.57v-.82a.28.28,0,0,1,.16-.22v.81A.27.27,0,0,0,1332.37,264.57Z"/></clipPath><clipPath id="clip-path-19" transform="translate(-1258.46 -173.58)"><path class="cls-1" d="M1332.37,264.57v-.82a.3.3,0,0,0,.17.24v.81A.29.29,0,0,1,1332.37,264.57Z"/></clipPath><clipPath id="clip-path-20" transform="translate(-1258.46 -173.58)"><path class="cls-1" d="M1329.37,264.56v-.81a1.75,1.75,0,0,0,1,1.47V266A1.77,1.77,0,0,1,1329.37,264.56Z"/></clipPath><clipPath id="clip-path-21" transform="translate(-1258.46 -173.58)"><path class="cls-1" d="M1388.63,292.43v.82a.29.29,0,0,0-.16-.24v-.81A.27.27,0,0,1,1388.63,292.43Z"/></clipPath><clipPath id="clip-path-22" transform="translate(-1258.46 -173.58)"><path class="cls-1" d="M1388.63,292.43v.82a.29.29,0,0,1-.16.23v-.82A.26.26,0,0,0,1388.63,292.43Z"/></clipPath><clipPath id="clip-path-23" transform="translate(-1258.46 -173.58)"><path class="cls-1" d="M1391.63,292.44v.82a1.78,1.78,0,0,1-1,1.45v-.82A1.75,1.75,0,0,0,1391.63,292.44Z"/></clipPath><clipPath id="clip-path-24" transform="translate(-1258.46 -173.58)"><path class="cls-1" d="M1385.74,294.25v.81a.85.85,0,0,1-.79,0v-.82A.88.88,0,0,0,1385.74,294.25Z"/></clipPath><clipPath id="clip-path-25" transform="translate(-1258.46 -173.58)"><path class="cls-1" d="M1387.87,295.48v.81a5.59,5.59,0,0,1-5,0v-.81A5.59,5.59,0,0,0,1387.87,295.48Z"/></clipPath><clipPath id="clip-path-26" transform="translate(-1258.46 -173.58)"><path class="cls-1" d="M1319.85,274.88v.82a.87.87,0,0,0-.8,0v-.82A.87.87,0,0,1,1319.85,274.88Z"/></clipPath><clipPath id="clip-path-27" transform="translate(-1258.46 -173.58)"><path class="cls-1" d="M1316.15,277.51v-.81a.26.26,0,0,1,.16-.23v.81A.29.29,0,0,0,1316.15,277.51Z"/></clipPath><clipPath id="clip-path-28" transform="translate(-1258.46 -173.58)"><path class="cls-1" d="M1316.15,277.51v-.81a.27.27,0,0,0,.16.23v.81A.27.27,0,0,1,1316.15,277.51Z"/></clipPath><clipPath id="clip-path-29" transform="translate(-1258.46 -173.58)"><path class="cls-1" d="M1313.16,277.5v-.81a1.8,1.8,0,0,0,1,1.47V279A1.78,1.78,0,0,1,1313.16,277.5Z"/></clipPath><clipPath id="clip-path-30" transform="translate(-1258.46 -173.58)"><path class="cls-1" d="M1351.85,293.49v.81a.29.29,0,0,0-.16-.23v-.81A.27.27,0,0,1,1351.85,293.49Z"/></clipPath><clipPath id="clip-path-31" transform="translate(-1258.46 -173.58)"><path class="cls-1" d="M1351.85,293.49v.81a.29.29,0,0,1-.16.24v-.82A.29.29,0,0,0,1351.85,293.49Z"/></clipPath><clipPath id="clip-path-32" transform="translate(-1258.46 -173.58)"><path class="cls-1" d="M1354.85,293.5v.82a1.76,1.76,0,0,1-1,1.45V295A1.76,1.76,0,0,0,1354.85,293.5Z"/></clipPath><clipPath id="clip-path-33" transform="translate(-1258.46 -173.58)"><path class="cls-1" d="M1349,295.31v.81a.87.87,0,0,1-.8,0v-.81A.91.91,0,0,0,1349,295.31Z"/></clipPath><clipPath id="clip-path-34" transform="translate(-1258.46 -173.58)"><path class="cls-1" d="M1351.08,296.54v.81a5.53,5.53,0,0,1-5,0v-.81A5.59,5.59,0,0,0,1351.08,296.54Z"/></clipPath></defs><title>phone_content</title><g id="Слой_8" data-name="Слой 8"><g class="cls-2"><polygon class="cls-3" points="340.7 82.74 340.69 86.81 309.68 104.83 309.69 100.75 340.7 82.74"/><polygon class="cls-4" points="309.69 100.75 309.68 104.83 166.38 22.09 166.39 18.02 309.69 100.75"/><polygon class="cls-5" points="340.7 82.74 309.69 100.75 166.39 18.02 197.39 0 340.7 82.74"/></g><g class="cls-2"><g class="cls-2"><g class="cls-6"><g class="cls-2"><path d="M1571,249.61v.82a3.52,3.52,0,0,0-2.06-2.89,8.51,8.51,0,0,0-1-.48v-.82a6.74,6.74,0,0,1,1,.49,3.49,3.49,0,0,1,2.06,2.88" transform="translate(-1258.46 -173.58)"/><path d="M1567.93,246.24v.82c-.27-.11-.56-.2-.85-.29V246c.29.08.58.18.85.28" transform="translate(-1258.46 -173.58)"/><path d="M1567.08,246v.81c-.24-.07-.48-.13-.73-.18v-.81c.25.05.49.11.73.18" transform="translate(-1258.46 -173.58)"/><path d="M1566.35,245.78v.81l-.7-.12v-.81q.35,0,.69.12" transform="translate(-1258.46 -173.58)"/><path d="M1565.66,245.66v.81l-.68-.07v-.82l.68.08" transform="translate(-1258.46 -173.58)"/><path d="M1565,245.58v.82l-.69,0v-.82l.7,0" transform="translate(-1258.46 -173.58)"/><path d="M1564.28,245.54v.82q-.36,0-.72,0v-.81h.72" transform="translate(-1258.46 -173.58)"/><path d="M1563.56,245.55v.81l-.78,0v-.81c.25,0,.51,0,.77,0" transform="translate(-1258.46 -173.58)"/><path d="M1562.79,245.6v.81c-.3,0-.6.08-.89.13v-.82c.3-.05.59-.09.9-.12" transform="translate(-1258.46 -173.58)"/><path d="M1561.89,245.72v.82a9.57,9.57,0,0,0-1.33.33v-.82a12.73,12.73,0,0,1,1.32-.33" transform="translate(-1258.46 -173.58)"/><path d="M1560.57,246.05v.82a8.14,8.14,0,0,0-1.53.67l-.08.05v-.81l.09-.05a7.88,7.88,0,0,1,1.53-.68" transform="translate(-1258.46 -173.58)"/><path d="M1559,246.78v.81a5.77,5.77,0,0,0-.88.66v-.82a5.15,5.15,0,0,1,.88-.65" transform="translate(-1258.46 -173.58)"/><path d="M1558.07,247.43v.82a3.78,3.78,0,0,0-.44.46v-.81a3.84,3.84,0,0,1,.44-.47" transform="translate(-1258.46 -173.58)"/><path d="M1557.63,247.9v.81a3.41,3.41,0,0,0-.28.42v-.81a3.07,3.07,0,0,1,.28-.42" transform="translate(-1258.46 -173.58)"/><path d="M1557.35,248.32v.81a3.62,3.62,0,0,0-.19.4v-.82c.06-.13.12-.26.19-.39" transform="translate(-1258.46 -173.58)"/><path d="M1557.16,248.71v.82a2.62,2.62,0,0,0-.11.4v-.82c0-.13.07-.26.11-.4" transform="translate(-1258.46 -173.58)"/><path d="M1557.05,249.11v.82a2.57,2.57,0,0,0,0,.4v-.82a1.81,1.81,0,0,1,0-.4" transform="translate(-1258.46 -173.58)"/><path d="M1557,249.51v0" transform="translate(-1258.46 -173.58)"/></g></g></g><g class="cls-2"><g class="cls-7"><g class="cls-2"><path class="cls-8" d="M1571,249.61v0" transform="translate(-1258.46 -173.58)"/><path class="cls-9" d="M1571,249.68v.81a2.57,2.57,0,0,1,0,.4v-.81a1.83,1.83,0,0,0,0-.4" transform="translate(-1258.46 -173.58)"/><path class="cls-10" d="M1571,250.08v.81a1.82,1.82,0,0,1-.11.4v-.82a1.9,1.9,0,0,0,.11-.39" transform="translate(-1258.46 -173.58)"/><path class="cls-11" d="M1570.84,250.47v.82a2.42,2.42,0,0,1-.19.4v-.82a2.09,2.09,0,0,0,.19-.4" transform="translate(-1258.46 -173.58)"/><path class="cls-12" d="M1570.65,250.87v.82a3.41,3.41,0,0,1-.28.42v-.82a3.41,3.41,0,0,0,.28-.42" transform="translate(-1258.46 -173.58)"/><path class="cls-13" d="M1570.37,251.29v.82a4.6,4.6,0,0,1-.43.46v-.81a3.74,3.74,0,0,0,.43-.47" transform="translate(-1258.46 -173.58)"/><path class="cls-14" d="M1569.94,251.76v.81a5.88,5.88,0,0,1-.89.66v-.82a5.58,5.58,0,0,0,.88-.65" transform="translate(-1258.46 -173.58)"/><path class="cls-15" d="M1569.06,252.41v.82l-.08.05a8.14,8.14,0,0,1-1.53.67v-.82a7.54,7.54,0,0,0,1.53-.67l.09-.05" transform="translate(-1258.46 -173.58)"/></g></g></g><g class="cls-2"><g class="cls-16"><g class="cls-2"><path class="cls-15" d="M1569.06,252.41v.82l-.08.05a8.14,8.14,0,0,1-1.53.67v-.82a7.54,7.54,0,0,0,1.53-.67l.09-.05" transform="translate(-1258.46 -173.58)"/><path class="cls-14" d="M1567.44,253.13V254a9.57,9.57,0,0,1-1.33.33v-.82a9.23,9.23,0,0,0,1.33-.33" transform="translate(-1258.46 -173.58)"/><path class="cls-13" d="M1566.11,253.46v.82c-.29.05-.59.09-.89.12v-.81a8.67,8.67,0,0,0,.89-.13" transform="translate(-1258.46 -173.58)"/><path class="cls-12" d="M1565.22,253.59v.81l-.78.06v-.82c.26,0,.52,0,.78,0" transform="translate(-1258.46 -173.58)"/><path class="cls-11" d="M1564.44,253.64v.82h-.72v-.82q.36,0,.72,0" transform="translate(-1258.46 -173.58)"/><path class="cls-10" d="M1563.72,253.64v.82l-.69,0v-.81l.69,0" transform="translate(-1258.46 -173.58)"/><path class="cls-9" d="M1563,253.61v.81l-.68-.07v-.82l.68.08" transform="translate(-1258.46 -173.58)"/><path class="cls-8" d="M1562.35,253.53v.82l-.7-.12v-.82c.23.05.46.09.7.12" transform="translate(-1258.46 -173.58)"/><path class="cls-17" d="M1561.65,253.41v.82l-.73-.18v-.82c.24.07.49.13.73.18" transform="translate(-1258.46 -173.58)"/><path class="cls-18" d="M1560.92,253.23v.82c-.29-.09-.57-.18-.85-.29v-.82a8.51,8.51,0,0,0,.85.29" transform="translate(-1258.46 -173.58)"/><path class="cls-19" d="M1560.07,252.94v.82a7.69,7.69,0,0,1-1-.48,3.53,3.53,0,0,1-2.07-2.89v-.82a3.5,3.5,0,0,0,2.07,2.89,7.69,7.69,0,0,0,1,.48" transform="translate(-1258.46 -173.58)"/></g></g></g><ellipse class="cls-20" cx="1564" cy="249.59" rx="4.06" ry="7" transform="translate(51.52 1639.3) rotate(-89.84)"/><g class="cls-2"><g class="cls-21"><g class="cls-2"><path d="M1573,249.62v0" transform="translate(-1258.46 -173.58)"/><path d="M1573,249.7v.81a4.35,4.35,0,0,1-.06.52v-.81a4.6,4.6,0,0,0,.06-.52" transform="translate(-1258.46 -173.58)"/><path d="M1572.94,250.22V251a4.91,4.91,0,0,1-.15.51v-.82a2.88,2.88,0,0,0,.15-.5" transform="translate(-1258.46 -173.58)"/><path d="M1572.79,250.72v.82a2.93,2.93,0,0,1-.24.51v-.81a2.71,2.71,0,0,0,.24-.52" transform="translate(-1258.46 -173.58)"/><path d="M1572.55,251.24v.81a4.22,4.22,0,0,1-.36.54v-.82a3.54,3.54,0,0,0,.36-.53" transform="translate(-1258.46 -173.58)"/><path d="M1572.19,251.77v.82a4.48,4.48,0,0,1-.56.6v-.82a4.48,4.48,0,0,0,.56-.6" transform="translate(-1258.46 -173.58)"/><path d="M1571.63,252.37v.82a6.47,6.47,0,0,1-1.14.84v-.81a7.4,7.4,0,0,0,1.13-.85" transform="translate(-1258.46 -173.58)"/><path d="M1570.5,253.22V254l-.1.07a10.66,10.66,0,0,1-2,.86v-.82a9.47,9.47,0,0,0,2-.86l.11-.06" transform="translate(-1258.46 -173.58)"/><path d="M1568.42,254.14V255a11.73,11.73,0,0,1-1.7.42v-.81a12.81,12.81,0,0,0,1.7-.43" transform="translate(-1258.46 -173.58)"/><path d="M1566.72,254.57v.81c-.38.07-.76.12-1.15.16v-.81c.39,0,.77-.09,1.15-.16" transform="translate(-1258.46 -173.58)"/><path d="M1565.57,254.73v.81c-.33,0-.67.06-1,.07v-.82c.33,0,.67,0,1-.06" transform="translate(-1258.46 -173.58)"/><path d="M1564.57,254.79v.82h-.93v-.81c.31,0,.62,0,.93,0" transform="translate(-1258.46 -173.58)"/><path d="M1563.64,254.8v.81c-.3,0-.59,0-.89,0v-.82c.3,0,.59,0,.89.05" transform="translate(-1258.46 -173.58)"/><path d="M1562.75,254.75v.82l-.88-.1v-.82c.29,0,.59.08.88.1" transform="translate(-1258.46 -173.58)"/><path d="M1561.87,254.65v.82c-.3,0-.6-.1-.89-.16v-.81c.29.06.59.11.89.15" transform="translate(-1258.46 -173.58)"/><path d="M1561,254.5v.81c-.32-.06-.63-.14-.94-.23v-.81c.31.09.62.16.94.23" transform="translate(-1258.46 -173.58)"/><path d="M1560,254.27v.81a9.3,9.3,0,0,1-1.09-.37v-.81c.35.14.72.26,1.09.37" transform="translate(-1258.46 -173.58)"/><path d="M1559,253.9v.81a8.51,8.51,0,0,1-1.29-.61c-1.78-1-2.66-2.37-2.66-3.72v-.81c0,1.34.88,2.69,2.65,3.71a10.24,10.24,0,0,0,1.29.62" transform="translate(-1258.46 -173.58)"/></g></g></g><path d="M1570.35,245.91c3.51,2,3.54,5.34,0,7.37a14.07,14.07,0,0,1-12.73,0c-3.52-2-3.54-5.34,0-7.37A14,14,0,0,1,1570.35,245.91Zm-11.28,6.55a10.93,10.93,0,0,0,9.9,0c2.72-1.58,2.71-4.15,0-5.73a10.93,10.93,0,0,0-9.9,0c-2.73,1.58-2.71,4.15,0,5.73" transform="translate(-1258.46 -173.58)"/></g><g class="cls-2"><polygon points="307.37 90.1 307.37 90.92 305.36 90.93 305.36 90.11 307.37 90.1"/><polygon points="305.36 90.11 305.36 90.93 305.19 82.39 305.19 81.57 305.36 90.11"/><polygon points="307.2 81.56 307.37 90.1 305.36 90.11 305.19 81.57 307.2 81.56"/></g><path class="cls-22" d="M1435,216" transform="translate(-1258.46 -173.58)"/><path class="cls-23" d="M1406,217" transform="translate(-1258.46 -173.58)"/><g class="cls-2"><polygon points="207.13 21.19 207.13 22.01 206.43 22.42 206.43 21.6 207.13 21.19"/><polygon points="206.43 21.6 206.43 22.42 192.95 14.64 192.95 13.82 206.43 21.6"/><polygon points="207.13 21.19 206.43 21.6 192.95 13.82 193.66 13.41 207.13 21.19"/></g><g class="cls-2"><polygon points="203.51 14.75 203.51 15.57 203.19 16.12 203.19 15.31 203.51 14.75"/><polygon points="203.19 15.31 203.19 16.12 192.57 14.07 192.57 13.25 203.19 15.31"/><polygon points="203.51 14.75 203.19 15.31 192.57 13.25 192.89 12.71 203.51 14.75"/></g><g class="cls-2"><polygon points="197.14 20.55 197.14 21.37 196.18 21.54 196.18 20.72 197.14 20.55"/><polygon points="196.18 20.72 196.18 21.54 191.94 13.28 191.94 12.46 196.18 20.72"/><polygon points="192.9 12.3 197.14 20.55 196.18 20.72 191.94 12.46 192.9 12.3"/></g></g><g id="Слой_9" data-name="Слой 9"><g class="cls-2"><g class="cls-2"><g class="cls-24"><g class="cls-2"><path class="cls-19" d="M1410.81,240.05v4.08a3.54,3.54,0,0,1-2.1-2.94v-4.07a3.57,3.57,0,0,0,2.1,2.93" transform="translate(-1258.46 -173.58)"/></g></g></g><g class="cls-2"><g class="cls-25"><g class="cls-2"><path class="cls-8" d="M1535.3,281.81v0" transform="translate(-1258.46 -173.58)"/><path class="cls-9" d="M1535.3,281.87V286a1.83,1.83,0,0,1,0,.4v-4.07a1.92,1.92,0,0,0,0-.41" transform="translate(-1258.46 -173.58)"/><path class="cls-10" d="M1535.25,282.28v4.07a1.82,1.82,0,0,1-.11.4v-4.07a2.19,2.19,0,0,0,.11-.4" transform="translate(-1258.46 -173.58)"/><path class="cls-11" d="M1535.14,282.68v4.07a3.75,3.75,0,0,1-.19.41v-4.08a2.42,2.42,0,0,0,.19-.4" transform="translate(-1258.46 -173.58)"/><path class="cls-12" d="M1535,283.08v4.08a3.52,3.52,0,0,1-.29.42l0-4.08a3.83,3.83,0,0,0,.28-.42" transform="translate(-1258.46 -173.58)"/><path class="cls-13" d="M1534.67,283.5l0,4.08a3.19,3.19,0,0,1-.44.47l0-4.07a4.9,4.9,0,0,0,.44-.48" transform="translate(-1258.46 -173.58)"/><path class="cls-14" d="M1534.23,284l0,4.07a5.3,5.3,0,0,1-.89.67v-4.08a5.81,5.81,0,0,0,.9-.66" transform="translate(-1258.46 -173.58)"/><path class="cls-15" d="M1533.33,284.64v4.08l-.09,0v-4.08l.09-.05" transform="translate(-1258.46 -173.58)"/></g></g></g><polygon class="cls-26" points="238.67 116.3 238.66 120.38 152.34 70.54 152.35 66.47 238.67 116.3"/><polygon class="cls-26" points="245.55 120.28 245.54 124.35 238.66 120.38 238.67 116.3 245.55 120.28"/><polygon class="cls-27" points="274.78 111.11 274.77 115.19 257.29 125.34 257.3 121.26 274.78 111.11"/><polygon class="cls-26" points="247.26 121.26 247.24 125.34 245.54 124.35 245.55 120.28 247.26 121.26"/><g class="cls-2"><g class="cls-28"><g class="cls-2"><path class="cls-15" d="M1515.77,294.85l0,4.07a7.52,7.52,0,0,1-1.55.69v-4.08a8.45,8.45,0,0,0,1.56-.68" transform="translate(-1258.46 -173.58)"/><path class="cls-14" d="M1514.21,295.53v4.08a9.71,9.71,0,0,1-1.34.33v-4.07a11.42,11.42,0,0,0,1.34-.34" transform="translate(-1258.46 -173.58)"/><path class="cls-13" d="M1512.87,295.87v4.07a9.06,9.06,0,0,1-.91.13V296c.31,0,.61-.07.91-.12" transform="translate(-1258.46 -173.58)"/><path class="cls-12" d="M1512,296v4.08l-.79.05v-4.07c.27,0,.53,0,.79-.06" transform="translate(-1258.46 -173.58)"/><path class="cls-11" d="M1511.17,296.05v4.07h-.72v-4.07h.72" transform="translate(-1258.46 -173.58)"/><path class="cls-10" d="M1510.45,296.05v4.07c-.24,0-.47,0-.7,0V296l.7,0" transform="translate(-1258.46 -173.58)"/><path class="cls-9" d="M1509.75,296v4.08l-.7-.08,0-4.08c.22,0,.45.06.69.08" transform="translate(-1258.46 -173.58)"/><path class="cls-8" d="M1509.06,295.93l0,4.08c-.23,0-.47-.07-.7-.12v-4.08c.23.05.47.09.71.12" transform="translate(-1258.46 -173.58)"/><path class="cls-17" d="M1508.35,295.81v4.08l-.74-.18v-4.08c.24.07.49.13.74.18" transform="translate(-1258.46 -173.58)"/><path class="cls-18" d="M1507.61,295.63v4.08q-.45-.13-.87-.3v-4.07c.28.11.57.2.87.29" transform="translate(-1258.46 -173.58)"/><path class="cls-19" d="M1506.74,295.34v4.07a6.85,6.85,0,0,1-1-.49v-4.07a9.63,9.63,0,0,0,1,.49" transform="translate(-1258.46 -173.58)"/></g></g></g><path class="cls-20" d="M1533.2,278.87c2.79,1.61,2.81,4.22,0,5.82l-17.47,10.16a11.09,11.09,0,0,1-10,0l-1.71-1-6.88-4-86.32-49.84c-2.78-1.61-2.81-4.21,0-5.82l17.48-10.16a11.07,11.07,0,0,1,10,0Z" transform="translate(-1258.46 -173.58)"/></g><g class="cls-2"><g class="cls-2"><g class="cls-29"><g class="cls-2"><path class="cls-19" d="M1492,298.65v4.08a1.54,1.54,0,0,1-.8-1.44v-4.07a1.53,1.53,0,0,0,.8,1.43" transform="translate(-1258.46 -173.58)"/></g></g></g><g class="cls-2"><g class="cls-30"><g class="cls-2"><path class="cls-15" d="M1507,295.36v4.08c-2.31.92-4.31,1.64-6,2.19v-4.08c1.73-.55,3.72-1.27,6-2.19" transform="translate(-1258.46 -173.58)"/><path class="cls-14" d="M1501,297.55v4.08a37.06,37.06,0,0,1-4.73,1.24l0-4.08a37.41,37.41,0,0,0,4.72-1.24" transform="translate(-1258.46 -173.58)"/><path class="cls-13" d="M1496.24,298.79l0,4.08c-.48.09-.92.15-1.32.19V299c.4,0,.84-.1,1.33-.19" transform="translate(-1258.46 -173.58)"/><path class="cls-12" d="M1494.91,299v4.08c-.26,0-.51,0-.74.05V299l.74-.06" transform="translate(-1258.46 -173.58)"/><path class="cls-11" d="M1494.17,299v4.07h-.49V299h.49" transform="translate(-1258.46 -173.58)"/><path class="cls-10" d="M1493.68,299v4.07h-.36V299l.36,0" transform="translate(-1258.46 -173.58)"/><path class="cls-9" d="M1493.32,299v4.08l-.31,0V299l.31,0" transform="translate(-1258.46 -173.58)"/><path class="cls-8" d="M1493,299v4.07l-.27,0,0-4.08.26.05" transform="translate(-1258.46 -173.58)"/><path class="cls-17" d="M1492.75,298.94l0,4.08-.24-.06v-4.08l.25.06" transform="translate(-1258.46 -173.58)"/><path class="cls-18" d="M1492.5,298.88V303l-.26-.09v-4.08l.26.09" transform="translate(-1258.46 -173.58)"/><path class="cls-19" d="M1492.24,298.79v4.08a2,2,0,0,1-.29-.14v-4.08a2,2,0,0,0,.29.14" transform="translate(-1258.46 -173.58)"/></g></g></g><path class="cls-20" d="M1496.35,289.22l10.64,6.14c-9.21,3.67-13.46,4.2-15,3.29C1488.8,296.83,1496,289.6,1496.35,289.22Z" transform="translate(-1258.46 -173.58)"/></g><g class="cls-2"><polygon points="242.85 95.05 242.85 95.87 240.03 97.5 240.03 96.69 242.85 95.05"/><polygon points="240.03 96.69 240.03 97.5 171.22 57.78 171.23 56.96 240.03 96.69"/><polygon points="242.85 95.05 240.03 96.69 171.23 56.96 174.04 55.33 242.85 95.05"/></g><g class="cls-2"><polygon points="217.49 90.93 217.49 91.75 214.67 93.39 214.67 92.57 217.49 90.93"/><polygon points="214.67 92.57 214.67 93.39 163.59 63.9 163.59 63.08 214.67 92.57"/><polygon points="217.49 90.93 214.67 92.57 163.59 63.08 166.42 61.44 217.49 90.93"/></g></g><g id="Слой_10" data-name="Слой 10"><g class="cls-2"><g class="cls-2"><g class="cls-31"><g class="cls-2"><path class="cls-19" d="M1261.68,300V304c-2.14-1.24-3.21-2.86-3.21-4.48v-4.08c0,1.62,1.07,3.25,3.21,4.48" transform="translate(-1258.46 -173.58)"/></g></g></g><g class="cls-2"><g class="cls-32"><g class="cls-2"><path class="cls-8" d="M1469.54,325.44v4.08a.28.28,0,0,1,0,.09l0-4.07v-.1" transform="translate(-1258.46 -173.58)"/><path class="cls-9" d="M1469.54,325.54l0,4.07a3.38,3.38,0,0,1-.07.63v-4.08a3.4,3.4,0,0,0,.08-.62" transform="translate(-1258.46 -173.58)"/><path class="cls-10" d="M1469.46,326.16v4.08a4.63,4.63,0,0,1-.17.61v-4.08a3.25,3.25,0,0,0,.17-.61" transform="translate(-1258.46 -173.58)"/><path class="cls-11" d="M1469.29,326.77v4.08a5.75,5.75,0,0,1-.29.62v-4.08a5,5,0,0,0,.29-.62" transform="translate(-1258.46 -173.58)"/><path class="cls-12" d="M1469,327.39v4.08a6.2,6.2,0,0,1-.44.65V328a4.38,4.38,0,0,0,.44-.65" transform="translate(-1258.46 -173.58)"/><path class="cls-13" d="M1468.56,328v4.08a6.36,6.36,0,0,1-.67.72v-4.08a5.61,5.61,0,0,0,.67-.72" transform="translate(-1258.46 -173.58)"/><path class="cls-14" d="M1467.89,328.76v4.08a8.52,8.52,0,0,1-1.38,1v-4.08a8,8,0,0,0,1.38-1" transform="translate(-1258.46 -173.58)"/><path class="cls-15" d="M1466.51,329.78v4.08l-.13.08v-4.08l.13-.08" transform="translate(-1258.46 -173.58)"/></g></g></g><polygon class="cls-27" points="207.92 156.28 207.91 160.35 139.36 200.19 139.37 196.11 207.92 156.28"/><polygon class="cls-26" points="124 196.11 123.99 200.19 3.21 130.46 3.22 126.38 124 196.11"/><g class="cls-2"><g class="cls-33"><g class="cls-2"><path class="cls-15" d="M1397.84,369.7l0,4.07a12.25,12.25,0,0,1-2.38,1.05v-4.08a12,12,0,0,0,2.39-1" transform="translate(-1258.46 -173.58)"/><path class="cls-14" d="M1395.45,370.74v4.08a16.76,16.76,0,0,1-2.06.51l0-4.07a15.38,15.38,0,0,0,2-.52" transform="translate(-1258.46 -173.58)"/><path class="cls-13" d="M1393.4,371.26l0,4.07c-.45.08-.92.15-1.38.19v-4.07c.47-.05.93-.11,1.39-.19" transform="translate(-1258.46 -173.58)"/><path class="cls-12" d="M1392,371.45v4.07c-.4,0-.81.07-1.21.08v-4.07c.41,0,.81,0,1.21-.08" transform="translate(-1258.46 -173.58)"/><path class="cls-11" d="M1390.8,371.53v4.07c-.37,0-.74,0-1.11,0v-4.08q.55,0,1.11,0" transform="translate(-1258.46 -173.58)"/><path class="cls-10" d="M1389.69,371.53v4.08c-.36,0-.72,0-1.07-.06v-4.07c.35,0,.71,0,1.07,0" transform="translate(-1258.46 -173.58)"/><path class="cls-9" d="M1388.62,371.48v4.07c-.36,0-.71-.07-1.06-.12v-4.07c.35.05.7.09,1.06.12" transform="translate(-1258.46 -173.58)"/><path class="cls-8" d="M1387.56,371.36v4.07q-.55-.07-1.08-.18v-4.08c.36.07.72.14,1.08.19" transform="translate(-1258.46 -173.58)"/><path class="cls-17" d="M1386.48,371.17v4.08c-.39-.08-.76-.18-1.13-.28v-4.08c.37.11.75.2,1.13.28" transform="translate(-1258.46 -173.58)"/><path class="cls-18" d="M1385.35,370.89V375a12.78,12.78,0,0,1-1.32-.45v-4.07a12.76,12.76,0,0,0,1.32.44" transform="translate(-1258.46 -173.58)"/><path class="cls-19" d="M1384,370.45v4.07a10.83,10.83,0,0,1-1.57-.75V369.7a12.63,12.63,0,0,0,1.57.75" transform="translate(-1258.46 -173.58)"/></g></g></g><path class="cls-20" d="M1466.33,321c4.26,2.45,4.28,6.44.05,8.9l-68.54,39.84a17,17,0,0,1-15.38,0L1261.68,300c-4.26-2.45-4.28-6.44,0-8.9l68.55-39.84a17,17,0,0,1,15.37,0Z" transform="translate(-1258.46 -173.58)"/></g><g class="cls-2"><polygon points="155.41 185.33 155.41 186.15 142.02 193.93 142.02 193.12 155.41 185.33"/><polygon points="142.02 193.12 142.02 193.93 6.17 115.5 6.17 114.68 142.02 193.12"/><polygon points="155.41 185.33 142.02 193.12 6.17 114.68 19.56 106.9 155.41 185.33"/></g><g class="cls-2"><g class="cls-2"><g class="cls-34"><g class="cls-2"><path d="M1416.5,307.12v.82c0-1.35-.88-2.69-2.65-3.72a10.38,10.38,0,0,0-1.3-.62v-.81a9.15,9.15,0,0,1,1.3.62c1.77,1,2.65,2.37,2.65,3.71" transform="translate(-1258.46 -173.58)"/><path d="M1412.55,302.79v.81c-.35-.14-.72-.26-1.09-.37v-.81c.38.11.74.23,1.09.37" transform="translate(-1258.46 -173.58)"/><path d="M1411.46,302.42v.81l-.94-.23v-.81c.32.07.64.14.94.23" transform="translate(-1258.46 -173.58)"/><path d="M1410.52,302.19V303c-.29-.06-.59-.11-.89-.15V302l.89.16" transform="translate(-1258.46 -173.58)"/><path d="M1409.63,302v.82l-.88-.1v-.81c.3,0,.59.05.88.09" transform="translate(-1258.46 -173.58)"/><path d="M1408.75,301.94v.81l-.89-.05v-.81c.29,0,.59,0,.88.05" transform="translate(-1258.46 -173.58)"/><path d="M1407.87,301.89v.81h-.92v-.82h.93" transform="translate(-1258.46 -173.58)"/><path d="M1406.94,301.89v.82c-.34,0-.67,0-1,.06V302c.33,0,.67-.06,1-.07" transform="translate(-1258.46 -173.58)"/><path d="M1405.94,302v.81c-.39,0-.77.1-1.15.17v-.82c.38-.07.76-.12,1.15-.16" transform="translate(-1258.46 -173.58)"/><path d="M1404.79,302.12v.82a11.86,11.86,0,0,0-1.71.42v-.82a14.56,14.56,0,0,1,1.7-.42" transform="translate(-1258.46 -173.58)"/><path d="M1403.09,302.54v.82a10.86,10.86,0,0,0-2,.86l-.11.07v-.82l.11-.06a10.05,10.05,0,0,1,2-.87" transform="translate(-1258.46 -173.58)"/><path d="M1401,303.47v.82a6.47,6.47,0,0,0-1.14.84v-.81a7,7,0,0,1,1.14-.85" transform="translate(-1258.46 -173.58)"/><path d="M1399.87,304.32v.81a6.14,6.14,0,0,0-.56.6v-.81a5.24,5.24,0,0,1,.56-.6" transform="translate(-1258.46 -173.58)"/><path d="M1399.31,304.92v.81a4.22,4.22,0,0,0-.36.54v-.82a4.5,4.5,0,0,1,.36-.53" transform="translate(-1258.46 -173.58)"/><path d="M1399,305.45v.82a2.93,2.93,0,0,0-.24.51V306a4.9,4.9,0,0,1,.24-.52" transform="translate(-1258.46 -173.58)"/><path d="M1398.71,306v.81a4.91,4.91,0,0,0-.15.51v-.82a2.85,2.85,0,0,1,.14-.5" transform="translate(-1258.46 -173.58)"/><path d="M1398.57,306.47v.82a3,3,0,0,0,0,.52V307a2.31,2.31,0,0,1,.06-.52" transform="translate(-1258.46 -173.58)"/><path d="M1398.51,307v.82a.17.17,0,0,0,0,.07V307" transform="translate(-1258.46 -173.58)"/></g></g></g><g class="cls-2"><g class="cls-35"><g class="cls-2"><path d="M1421.5,307.13v.13a.53.53,0,0,0,0-.13" transform="translate(-1258.46 -173.58)"/><path d="M1421.49,307.26v.81a5.58,5.58,0,0,1-.09.81v-.82a3.57,3.57,0,0,0,.09-.8" transform="translate(-1258.46 -173.58)"/><path d="M1421.4,308.06v.82a4.71,4.71,0,0,1-.23.79v-.82a5.45,5.45,0,0,0,.22-.79" transform="translate(-1258.46 -173.58)"/><path d="M1421.18,308.85v.82a5.61,5.61,0,0,1-.37.79v-.81a5.3,5.3,0,0,0,.38-.8" transform="translate(-1258.46 -173.58)"/><path d="M1420.8,309.65v.81a6.46,6.46,0,0,1-.56.84v-.82a7.11,7.11,0,0,0,.56-.83" transform="translate(-1258.46 -173.58)"/><path d="M1420.24,310.48v.82a7.51,7.51,0,0,1-.87.93v-.81a8.35,8.35,0,0,0,.87-.94" transform="translate(-1258.46 -173.58)"/><path d="M1419.37,311.42v.81a11,11,0,0,1-1.77,1.31v-.81a11,11,0,0,0,1.77-1.31" transform="translate(-1258.46 -173.58)"/><path d="M1417.6,312.73v.81l-.17.1a16,16,0,0,1-3.06,1.35v-.82a15.4,15.4,0,0,0,3.06-1.34l.17-.1" transform="translate(-1258.46 -173.58)"/><path d="M1414.37,314.17V315a22.31,22.31,0,0,1-2.65.66v-.82a19,19,0,0,0,2.65-.66" transform="translate(-1258.46 -173.58)"/><path d="M1411.72,314.83v.82c-.59.1-1.19.19-1.79.25v-.82c.6-.06,1.2-.14,1.79-.25" transform="translate(-1258.46 -173.58)"/><path d="M1409.93,315.08v.82c-.52.05-1,.08-1.56.1v-.81c.52,0,1-.06,1.56-.11" transform="translate(-1258.46 -173.58)"/><path d="M1408.37,315.19V316c-.48,0-1,0-1.44,0v-.82c.47,0,1,0,1.43,0" transform="translate(-1258.46 -173.58)"/><path d="M1406.94,315.19V316c-.46,0-.92,0-1.38-.08v-.81c.46,0,.92.06,1.39.07" transform="translate(-1258.46 -173.58)"/><path d="M1405.55,315.12v.81c-.46,0-.91-.08-1.36-.15V315c.45.06.91.11,1.36.15" transform="translate(-1258.46 -173.58)"/><path d="M1404.19,315v.81c-.47-.06-.93-.14-1.39-.24v-.81c.46.09.92.17,1.39.24" transform="translate(-1258.46 -173.58)"/><path d="M1402.8,314.73v.81c-.49-.1-1-.22-1.46-.36v-.81c.48.13,1,.25,1.46.36" transform="translate(-1258.46 -173.58)"/><path d="M1401.34,314.37v.81a16.15,16.15,0,0,1-1.7-.57v-.81c.54.21,1.11.4,1.69.57" transform="translate(-1258.46 -173.58)"/><path d="M1399.65,313.8v.81a16.18,16.18,0,0,1-2-1c-2.75-1.6-4.13-3.69-4.12-5.78v-.82c0,2.1,1.37,4.19,4.12,5.78a15.7,15.7,0,0,0,2,1" transform="translate(-1258.46 -173.58)"/></g></g></g><path d="M1417.37,301.36c5.48,3.17,5.51,8.3.06,11.47s-14.32,3.16-19.8,0-5.5-8.31-.06-11.47S1411.89,298.2,1417.37,301.36Zm-16.21,9.42a14,14,0,0,0,12.73,0c3.49-2,3.48-5.34,0-7.37a14,14,0,0,0-12.73,0c-3.5,2-3.48,5.34,0,7.37" transform="translate(-1258.46 -173.58)"/></g><g class="cls-2"><g class="cls-2"><g class="cls-36"><g class="cls-2"><path d="M1426,337.62v.81c0-1.34-.89-2.69-2.66-3.71a9.62,9.62,0,0,0-1.29-.62v-.81a8.51,8.51,0,0,1,1.29.61c1.78,1,2.66,2.37,2.66,3.72" transform="translate(-1258.46 -173.58)"/><path d="M1422.05,333.29v.81c-.35-.14-.72-.26-1.09-.37v-.81a9.3,9.3,0,0,1,1.09.37" transform="translate(-1258.46 -173.58)"/><path d="M1421,332.92v.81c-.31-.09-.62-.16-.94-.23v-.81a9.22,9.22,0,0,1,.94.23" transform="translate(-1258.46 -173.58)"/><path d="M1420,332.69v.81c-.29-.06-.59-.11-.89-.15v-.82c.3,0,.6.1.89.16" transform="translate(-1258.46 -173.58)"/><path d="M1419.13,332.53v.82c-.29,0-.59-.08-.88-.1v-.82l.88.1" transform="translate(-1258.46 -173.58)"/><path d="M1418.25,332.43v.82c-.3,0-.59,0-.89-.05v-.81c.3,0,.6,0,.89,0" transform="translate(-1258.46 -173.58)"/><path d="M1417.36,332.39v.81c-.31,0-.62,0-.93,0v-.82h.92" transform="translate(-1258.46 -173.58)"/><path d="M1416.44,332.39v.82c-.33,0-.67,0-1,.06v-.81c.34,0,.67-.06,1-.07" transform="translate(-1258.46 -173.58)"/><path d="M1415.43,332.46v.81c-.39,0-.77.09-1.15.16v-.81c.38-.07.77-.12,1.15-.16" transform="translate(-1258.46 -173.58)"/><path d="M1414.28,332.62v.81a13.21,13.21,0,0,0-1.7.43V333a12.06,12.06,0,0,1,1.7-.42" transform="translate(-1258.46 -173.58)"/><path d="M1412.58,333v.82a9.47,9.47,0,0,0-2,.86l-.1.06V334l.11-.07a10.56,10.56,0,0,1,2-.86" transform="translate(-1258.46 -173.58)"/><path d="M1410.51,334v.81a7.66,7.66,0,0,0-1.14.84v-.81a6.87,6.87,0,0,1,1.14-.84" transform="translate(-1258.46 -173.58)"/><path d="M1409.37,334.81v.81a7.68,7.68,0,0,0-.56.6v-.81a4.39,4.39,0,0,1,.55-.6" transform="translate(-1258.46 -173.58)"/><path d="M1408.82,335.41v.81a5.63,5.63,0,0,0-.36.54V336a4,4,0,0,1,.37-.54" transform="translate(-1258.46 -173.58)"/><path d="M1408.45,336v.81q-.14.25-.24.51v-.81a4.74,4.74,0,0,1,.24-.51" transform="translate(-1258.46 -173.58)"/><path d="M1408.21,336.46v.81a3.23,3.23,0,0,0-.14.51V337a3.23,3.23,0,0,1,.14-.51" transform="translate(-1258.46 -173.58)"/><path d="M1408.07,337v.81a2.31,2.31,0,0,0-.06.52v-.81a2.24,2.24,0,0,1,.06-.52" transform="translate(-1258.46 -173.58)"/><path d="M1408,337.49v0" transform="translate(-1258.46 -173.58)"/></g></g></g><g class="cls-2"><g class="cls-37"><g class="cls-2"><path d="M1431,337.63v.82a.49.49,0,0,1,0,.12v-.94" transform="translate(-1258.46 -173.58)"/><path d="M1431,337.75v.82a3.57,3.57,0,0,1-.09.8v-.81a4.48,4.48,0,0,0,.1-.81" transform="translate(-1258.46 -173.58)"/><path d="M1430.9,338.56v.81a5.45,5.45,0,0,1-.22.79v-.81a4.66,4.66,0,0,0,.22-.79" transform="translate(-1258.46 -173.58)"/><path d="M1430.68,339.35v.81a6.48,6.48,0,0,1-.38.8v-.81a5.8,5.8,0,0,0,.38-.8" transform="translate(-1258.46 -173.58)"/><path d="M1430.3,340.15V341a6.46,6.46,0,0,1-.56.84V341a6,6,0,0,0,.56-.83" transform="translate(-1258.46 -173.58)"/><path d="M1429.74,341v.82a7.51,7.51,0,0,1-.87.93v-.81a7.57,7.57,0,0,0,.87-.94" transform="translate(-1258.46 -173.58)"/><path d="M1428.87,341.92v.81a11,11,0,0,1-1.77,1.31v-.81a11.34,11.34,0,0,0,1.76-1.31" transform="translate(-1258.46 -173.58)"/><path d="M1427.11,343.23V344l-.17.1a16,16,0,0,1-3.06,1.35v-.82a15.66,15.66,0,0,0,3.06-1.34,1,1,0,0,1,.17-.1" transform="translate(-1258.46 -173.58)"/><path d="M1423.88,344.67v.82a21.83,21.83,0,0,1-2.65.66v-.82a18.8,18.8,0,0,0,2.66-.66" transform="translate(-1258.46 -173.58)"/><path d="M1421.22,345.33v.82c-.59.1-1.18.19-1.79.25v-.82c.6-.06,1.2-.14,1.78-.25" transform="translate(-1258.46 -173.58)"/><path d="M1419.44,345.58v.82c-.51.05-1,.08-1.55.1v-.82c.52,0,1-.05,1.56-.1" transform="translate(-1258.46 -173.58)"/><path d="M1417.88,345.68v.82c-.48,0-1,0-1.44,0v-.82c.48,0,1,0,1.44,0" transform="translate(-1258.46 -173.58)"/><path d="M1416.44,345.69v.82c-.46,0-.93,0-1.38-.08v-.81c.46,0,.92.06,1.38.07" transform="translate(-1258.46 -173.58)"/><path d="M1415.06,345.62v.81c-.46,0-.92-.09-1.37-.15v-.82c.45.07.91.12,1.37.16" transform="translate(-1258.46 -173.58)"/><path d="M1413.69,345.46v.82c-.47-.07-.93-.15-1.39-.24v-.82c.46.1.92.18,1.39.24" transform="translate(-1258.46 -173.58)"/><path d="M1412.3,345.22V346c-.5-.1-1-.22-1.46-.36v-.82c.48.14,1,.26,1.46.36" transform="translate(-1258.46 -173.58)"/><path d="M1410.84,344.86v.82c-.58-.17-1.15-.36-1.7-.57v-.82a16.15,16.15,0,0,0,1.7.57" transform="translate(-1258.46 -173.58)"/><path d="M1409.14,344.29v.82a15.56,15.56,0,0,1-2-1c-2.76-1.59-4.13-3.68-4.13-5.77v-.81c0,2.08,1.37,4.18,4.12,5.77a16.18,16.18,0,0,0,2,1" transform="translate(-1258.46 -173.58)"/></g></g></g><path d="M1426.87,331.85c5.48,3.17,5.51,8.31.07,11.48s-14.33,3.16-19.81,0-5.5-8.31-.06-11.47S1421.39,328.69,1426.87,331.85Zm-16.21,9.43a14.07,14.07,0,0,0,12.73,0c3.49-2,3.48-5.34-.05-7.38a14,14,0,0,0-12.72,0c-3.5,2-3.48,5.35,0,7.38" transform="translate(-1258.46 -173.58)"/></g><g class="cls-2"><polygon points="190.88 149.43 190.88 150.24 119.46 152.29 119.47 151.47 190.88 149.43"/><polygon points="119.47 151.47 119.46 152.29 119.21 149.4 119.21 148.58 119.47 151.47"/><polygon points="190.61 146.53 190.88 149.43 119.47 151.47 119.21 148.58 190.61 146.53"/></g><g class="cls-2"><g class="cls-2"><g class="cls-38"><g class="cls-2"><path d="M1336.06,261.94v.82l-.08,0v-.82l.08,0" transform="translate(-1258.46 -173.58)"/><path d="M1336,261.9v.82l-.07,0v-.81l.07,0" transform="translate(-1258.46 -173.58)"/><path d="M1335.91,261.88v.81h-.06v-.82l.06,0" transform="translate(-1258.46 -173.58)"/><path d="M1335.85,261.86v.82h-.06v-.81h0" transform="translate(-1258.46 -173.58)"/><path d="M1335.8,261.86v.81h0v-.81h.06" transform="translate(-1258.46 -173.58)"/><path d="M1335.74,261.85v.81h-.06v-.81h0" transform="translate(-1258.46 -173.58)"/><path d="M1335.69,261.85v.81h0v-.81h.06" transform="translate(-1258.46 -173.58)"/><path d="M1335.63,261.85v.81h-.07v-.82h.06" transform="translate(-1258.46 -173.58)"/><path d="M1335.57,261.85v.82h-.07v-.82h.08" transform="translate(-1258.46 -173.58)"/><path d="M1335.49,261.86v.82l-.11,0v-.81l.1,0" transform="translate(-1258.46 -173.58)"/><path d="M1335.39,261.89v.81l-.12.06v-.82l.13-.05" transform="translate(-1258.46 -173.58)"/></g></g></g><polygon points="76.8 88.36 76.8 89.17 74.07 90.76 74.07 89.94 76.8 88.36"/><g class="cls-2"><g class="cls-39"><g class="cls-2"><polyline points="74.07 89.94 74.07 90.76 74.06 90.76 74.07 89.95 74.07 89.94"/><path d="M1332.53,263.53v.82a.15.15,0,0,0-.06,0v-.82l.07-.05" transform="translate(-1258.46 -173.58)"/><path d="M1332.46,263.58v.82l0,0v-.81s0,0,0,0" transform="translate(-1258.46 -173.58)"/><path d="M1332.42,263.62v.81s0,0,0,0v-.82l0,0" transform="translate(-1258.46 -173.58)"/><path d="M1332.4,263.65v.82l0,0v-.82a0,0,0,0,1,0,0" transform="translate(-1258.46 -173.58)"/><path d="M1332.39,263.68v.82a0,0,0,0,1,0,0v-.81a.06.06,0,0,1,0,0" transform="translate(-1258.46 -173.58)"/><path d="M1332.38,263.72v0a0,0,0,0,1,0,0" transform="translate(-1258.46 -173.58)"/><polyline points="73.91 90.16 73.91 90.98 73.91 90.98 73.91 90.17 73.91 90.16"/></g></g></g><g class="cls-2"><g class="cls-40"><g class="cls-2"><path d="M1332.54,264v.81a.29.29,0,0,1-.17-.23v-.82a.3.3,0,0,0,.17.24" transform="translate(-1258.46 -173.58)"/></g></g></g><g class="cls-2"><g class="cls-41"><g class="cls-2"><path d="M1330.42,265.22V266a1.77,1.77,0,0,1-1.05-1.47v-.81a1.75,1.75,0,0,0,1,1.47" transform="translate(-1258.46 -173.58)"/></g></g></g><polygon points="130.01 118.61 130 119.43 77.6 89.17 77.6 88.36 130.01 118.61"/><g class="cls-2"><g class="cls-42"><g class="cls-2"><path d="M1388.63,292.43v.82a.29.29,0,0,0-.16-.24v-.81a.27.27,0,0,1,.16.23" transform="translate(-1258.46 -173.58)"/></g></g></g><g class="cls-2"><g class="cls-43"><g class="cls-2"><polyline points="130.17 118.85 130.17 119.66 130.17 119.67 130.17 118.85 130.17 118.85"/><path d="M1388.63,292.44v0" transform="translate(-1258.46 -173.58)"/><path d="M1388.63,292.47v0a0,0,0,0,0,0,0" transform="translate(-1258.46 -173.58)"/><path d="M1388.62,292.5v.82l0,0v-.81s0,0,0,0" transform="translate(-1258.46 -173.58)"/><path d="M1388.61,292.54v.81l0,0v-.81l0,0" transform="translate(-1258.46 -173.58)"/><path d="M1388.58,292.57v.81l0,0v-.81l0,0" transform="translate(-1258.46 -173.58)"/><path d="M1388.55,292.61v.81l-.07.05v-.81l.07-.05" transform="translate(-1258.46 -173.58)"/><polyline points="130.02 119.07 130.01 119.89 130.01 119.89 130.01 119.08 130.02 119.07"/></g></g></g><g class="cls-2"><g class="cls-44"><g class="cls-2"><path d="M1391.63,292.44v0" transform="translate(-1258.46 -173.58)"/><path d="M1391.63,292.47v.82a1.36,1.36,0,0,1,0,.2v-.81a1.49,1.49,0,0,0,0-.21" transform="translate(-1258.46 -173.58)"/><path d="M1391.61,292.68v.81l-.06.2v-.81l.06-.2" transform="translate(-1258.46 -173.58)"/><path d="M1391.55,292.88v.81a2,2,0,0,1-.1.21v-.82l.09-.2" transform="translate(-1258.46 -173.58)"/><path d="M1391.46,293.08v.82c0,.07-.09.14-.14.21v-.82c.06-.07.1-.14.15-.21" transform="translate(-1258.46 -173.58)"/><path d="M1391.31,293.29v.82a2.4,2.4,0,0,1-.22.24v-.82a1.65,1.65,0,0,0,.22-.24" transform="translate(-1258.46 -173.58)"/><path d="M1391.09,293.53v.82a3.27,3.27,0,0,1-.45.33v-.81a3.31,3.31,0,0,0,.45-.34" transform="translate(-1258.46 -173.58)"/><path d="M1390.64,293.87v.81l-.05,0v-.82l0,0" transform="translate(-1258.46 -173.58)"/></g></g></g><polygon points="126.49 120.66 126.48 121.47 74.08 91.22 74.08 90.4 126.49 120.66"/><polygon points="130.01 119.08 130.01 119.89 127.28 121.48 127.28 120.66 130.01 119.08"/><g class="cls-2"><g class="cls-45"><g class="cls-2"><path d="M1385.74,294.25v.81a.33.33,0,0,1-.12.05v-.81l.11-.05" transform="translate(-1258.46 -173.58)"/><path d="M1385.63,294.3v.81a.29.29,0,0,1-.1,0v-.81l.11,0" transform="translate(-1258.46 -173.58)"/><path d="M1385.52,294.33v.81h-.07v-.81h.07" transform="translate(-1258.46 -173.58)"/><path d="M1385.45,294.34v.81h-.07v-.82h.06" transform="translate(-1258.46 -173.58)"/><path d="M1385.39,294.34v.82h-.06v-.82h.06" transform="translate(-1258.46 -173.58)"/><path d="M1385.33,294.34v.82h0v-.81h.06" transform="translate(-1258.46 -173.58)"/><path d="M1385.27,294.34v.81h-.06v-.82h.06" transform="translate(-1258.46 -173.58)"/><path d="M1385.21,294.33v.82h-.06v-.82h0" transform="translate(-1258.46 -173.58)"/><path d="M1385.16,294.32v.82l-.06,0v-.81h.06" transform="translate(-1258.46 -173.58)"/><path d="M1385.1,294.31v.81l-.06,0v-.82l.07,0" transform="translate(-1258.46 -173.58)"/><path d="M1385,294.28v.82l-.08,0v-.82l.08,0" transform="translate(-1258.46 -173.58)"/></g></g></g><path d="M1390.58,291c1.39.8,1.41,2.11,0,2.92l-2.73,1.59a5.59,5.59,0,0,1-5,0l-52.41-30.26c-1.39-.8-1.4-2.12,0-2.92l2.72-1.58a5.58,5.58,0,0,1,5,0Zm-4.84,3.28,2.73-1.59c.22-.13.22-.34,0-.46l-52.41-30.26a.87.87,0,0,0-.8,0l-2.73,1.59c-.21.12-.21.33,0,.46L1385,294.24a.88.88,0,0,0,.79,0" transform="translate(-1258.46 -173.58)"/><path d="M1388.47,292.2c.22.12.22.33,0,.46l-2.73,1.59a.88.88,0,0,1-.79,0L1332.54,264c-.22-.13-.22-.34,0-.46l2.73-1.59a.87.87,0,0,1,.8,0Z" transform="translate(-1258.46 -173.58)"/><polygon points="132.14 120.31 132.13 121.12 129.41 122.71 129.41 121.89 132.14 120.31"/><polygon points="124.37 121.89 124.37 122.71 71.96 92.45 71.96 91.64 124.37 121.89"/><g class="cls-2"><g class="cls-46"><g class="cls-2"><path d="M1387.87,295.48v.81a3.91,3.91,0,0,1-.78.34v-.81a4.59,4.59,0,0,0,.78-.34" transform="translate(-1258.46 -173.58)"/><path d="M1387.09,295.82v.81a5.06,5.06,0,0,1-.67.17V296a4.68,4.68,0,0,0,.67-.16" transform="translate(-1258.46 -173.58)"/><path d="M1386.42,296v.82a3.62,3.62,0,0,1-.46.06v-.81l.46-.07" transform="translate(-1258.46 -173.58)"/><path d="M1386,296.05v.81a2.6,2.6,0,0,1-.4,0v-.82l.4,0" transform="translate(-1258.46 -173.58)"/><path d="M1385.56,296.07v.82h-.36v-.81h.36" transform="translate(-1258.46 -173.58)"/><path d="M1385.2,296.08v.81l-.36,0v-.81l.36,0" transform="translate(-1258.46 -173.58)"/><path d="M1384.84,296.06v.81l-.35,0V296l.34,0" transform="translate(-1258.46 -173.58)"/><path d="M1384.5,296v.81l-.35-.06V296l.36.06" transform="translate(-1258.46 -173.58)"/><path d="M1384.14,296v.81a2.22,2.22,0,0,1-.37-.09v-.81l.37.09" transform="translate(-1258.46 -173.58)"/><path d="M1383.77,295.87v.81l-.43-.14v-.82c.14.06.28.1.43.15" transform="translate(-1258.46 -173.58)"/><path d="M1383.34,295.72v.82c-.18-.08-.35-.16-.51-.25v-.81a4,4,0,0,0,.51.24" transform="translate(-1258.46 -173.58)"/></g></g></g></g><g class="cls-2"><g class="cls-2"><g class="cls-47"><g class="cls-2"><path d="M1319.85,274.88v.82l-.09,0v-.82l.08,0" transform="translate(-1258.46 -173.58)"/><path d="M1319.77,274.84v.82l-.06,0v-.81l.07,0" transform="translate(-1258.46 -173.58)"/><path d="M1319.7,274.82v.81h-.06v-.82l.06,0" transform="translate(-1258.46 -173.58)"/><path d="M1319.64,274.8v.82h-.06v-.82h.06" transform="translate(-1258.46 -173.58)"/><path d="M1319.58,274.79v.82h0v-.81h0" transform="translate(-1258.46 -173.58)"/><path d="M1319.53,274.79v.81h-.06v-.82h.06" transform="translate(-1258.46 -173.58)"/><path d="M1319.47,274.78v.82h-.06v-.82h.06" transform="translate(-1258.46 -173.58)"/><path d="M1319.41,274.78v.82h-.06v-.81h.06" transform="translate(-1258.46 -173.58)"/><path d="M1319.35,274.79v.81h-.07v-.81h.07" transform="translate(-1258.46 -173.58)"/><path d="M1319.28,274.8v.81l-.11,0v-.82l.11,0" transform="translate(-1258.46 -173.58)"/><path d="M1319.17,274.82v.82a.27.27,0,0,0-.12.06v-.82l.12-.06" transform="translate(-1258.46 -173.58)"/></g></g></g><polygon points="60.59 101.3 60.58 102.11 57.86 103.69 57.86 102.88 60.59 101.3"/><g class="cls-2"><g class="cls-48"><g class="cls-2"><polyline points="57.86 102.88 57.86 103.69 57.85 103.7 57.85 102.88 57.86 102.88"/><path d="M1316.31,276.47v.81l-.07.06v-.82l.07,0" transform="translate(-1258.46 -173.58)"/><path d="M1316.24,276.52v.82l0,0v-.81l0,0" transform="translate(-1258.46 -173.58)"/><path d="M1316.21,276.56v.81l0,0v-.82l0,0" transform="translate(-1258.46 -173.58)"/><path d="M1316.19,276.59v0a.05.05,0,0,1,0,0" transform="translate(-1258.46 -173.58)"/><path d="M1316.17,276.63v.81a0,0,0,0,0,0,0v-.81s0,0,0,0" transform="translate(-1258.46 -173.58)"/><path d="M1316.16,276.66v0" transform="translate(-1258.46 -173.58)"/><polyline points="57.7 103.11 57.69 103.92 57.69 103.93 57.7 103.11 57.7 103.11"/></g></g></g><g class="cls-2"><g class="cls-49"><g class="cls-2"><path d="M1316.32,276.93v.81a.27.27,0,0,1-.17-.23v-.81a.27.27,0,0,0,.16.23" transform="translate(-1258.46 -173.58)"/></g></g></g><g class="cls-2"><g class="cls-50"><g class="cls-2"><path d="M1314.21,278.16V279a1.78,1.78,0,0,1-1-1.47v-.81a1.8,1.8,0,0,0,1,1.47" transform="translate(-1258.46 -173.58)"/></g></g></g><polygon points="93.22 119.67 93.22 120.49 61.39 102.11 61.39 101.3 93.22 119.67"/><g class="cls-2"><g class="cls-51"><g class="cls-2"><path d="M1351.85,293.49v.81a.29.29,0,0,0-.16-.23v-.81a.27.27,0,0,1,.17.23" transform="translate(-1258.46 -173.58)"/></g></g></g><g class="cls-2"><g class="cls-52"><g class="cls-2"><polyline points="93.39 119.9 93.38 120.72 93.38 120.72 93.39 119.91 93.39 119.9"/><path d="M1351.85,293.49v0s0,0,0,0" transform="translate(-1258.46 -173.58)"/><path d="M1351.84,293.53v.81s0,0,0,0v-.81a0,0,0,0,0,0,0" transform="translate(-1258.46 -173.58)"/><path d="M1351.83,293.56v0" transform="translate(-1258.46 -173.58)"/><path d="M1351.82,293.59v.81l0,0v-.82l0,0" transform="translate(-1258.46 -173.58)"/><path d="M1351.8,293.62v.82l0,0v-.82l0,0" transform="translate(-1258.46 -173.58)"/><path d="M1351.76,293.66v.82l-.08,0v-.81l.07-.06" transform="translate(-1258.46 -173.58)"/><polyline points="93.23 120.13 93.22 120.95 93.22 120.95 93.22 120.14 93.23 120.13"/></g></g></g><g class="cls-2"><g class="cls-53"><g class="cls-2"><path d="M1354.85,293.5v0" transform="translate(-1258.46 -173.58)"/><path d="M1354.85,293.53v.82a1.23,1.23,0,0,1,0,.2v-.81a1.52,1.52,0,0,0,0-.21" transform="translate(-1258.46 -173.58)"/><path d="M1354.82,293.74v.81a.66.66,0,0,1-.06.2v-.81a1.46,1.46,0,0,0,0-.2" transform="translate(-1258.46 -173.58)"/><path d="M1354.77,293.94v.81a1,1,0,0,1-.09.21v-.82l.1-.2" transform="translate(-1258.46 -173.58)"/><path d="M1354.67,294.14V295a1.37,1.37,0,0,1-.15.21v-.82c0-.07.1-.14.14-.21" transform="translate(-1258.46 -173.58)"/><path d="M1354.53,294.35v.82a1.6,1.6,0,0,1-.22.24v-.82a1.7,1.7,0,0,0,.22-.24" transform="translate(-1258.46 -173.58)"/><path d="M1354.31,294.59v.82a2.38,2.38,0,0,1-.45.33v-.81a3.31,3.31,0,0,0,.45-.34" transform="translate(-1258.46 -173.58)"/><path d="M1353.86,294.93v.81l0,0V295l0,0" transform="translate(-1258.46 -173.58)"/></g></g></g><polygon points="93.22 120.14 93.22 120.95 90.49 122.54 90.49 121.72 93.22 120.14"/><polygon points="89.7 121.72 89.69 122.54 57.86 104.16 57.86 103.34 89.7 121.72"/><g class="cls-2"><g class="cls-54"><g class="cls-2"><path d="M1349,295.31v.81l-.12.05v-.81l.12-.05" transform="translate(-1258.46 -173.58)"/><path d="M1348.83,295.36v.81l-.11,0v-.81l.11,0" transform="translate(-1258.46 -173.58)"/><path d="M1348.72,295.39v.81h-.08v-.81h.07" transform="translate(-1258.46 -173.58)"/><path d="M1348.65,295.4v.81h-.06v-.82h.07" transform="translate(-1258.46 -173.58)"/><path d="M1348.58,295.4v.82h-.06v-.82h.06" transform="translate(-1258.46 -173.58)"/><path d="M1348.52,295.4v.82h-.06v-.81h0" transform="translate(-1258.46 -173.58)"/><path d="M1348.47,295.4v.81h0v-.82h.06" transform="translate(-1258.46 -173.58)"/><path d="M1348.41,295.39v.82h-.06v-.82h.05" transform="translate(-1258.46 -173.58)"/><path d="M1348.36,295.38v.82l0,0v-.81h.06" transform="translate(-1258.46 -173.58)"/><path d="M1348.3,295.37v.81l-.07,0v-.81l.07,0" transform="translate(-1258.46 -173.58)"/><path d="M1348.23,295.35v.81l-.08,0v-.81l.07,0" transform="translate(-1258.46 -173.58)"/></g></g></g><path d="M1353.8,292c1.39.81,1.4,2.11,0,2.92l-2.73,1.59a5.59,5.59,0,0,1-5,0l-31.83-18.38c-1.39-.81-1.4-2.12,0-2.92l2.73-1.59a5.59,5.59,0,0,1,5,0Zm-4.85,3.28,2.73-1.59c.22-.13.22-.34,0-.46l-31.83-18.38a.87.87,0,0,0-.8,0l-2.73,1.59c-.22.12-.22.33,0,.46l31.84,18.38a.91.91,0,0,0,.79,0" transform="translate(-1258.46 -173.58)"/><path d="M1351.68,293.26c.22.12.22.33,0,.46l-2.73,1.59a.91.91,0,0,1-.79,0l-31.84-18.38c-.22-.13-.22-.34,0-.46l2.73-1.59a.87.87,0,0,1,.8,0Z" transform="translate(-1258.46 -173.58)"/><polygon points="95.35 121.37 95.35 122.18 92.62 123.77 92.62 122.95 95.35 121.37"/><polygon points="87.58 122.95 87.58 123.77 55.75 105.39 55.75 104.57 87.58 122.95"/><g class="cls-2"><g class="cls-55"><g class="cls-2"><path d="M1351.08,296.54v.81a3.83,3.83,0,0,1-.77.34v-.81a4.17,4.17,0,0,0,.77-.34" transform="translate(-1258.46 -173.58)"/><path d="M1350.31,296.88v.81a5.2,5.2,0,0,1-.68.17v-.81a6.76,6.76,0,0,0,.68-.17" transform="translate(-1258.46 -173.58)"/><path d="M1349.63,297.05v.81l-.45.06v-.81l.45-.06" transform="translate(-1258.46 -173.58)"/><path d="M1349.18,297.11v.81l-.4,0v-.81l.4,0" transform="translate(-1258.46 -173.58)"/><path d="M1348.78,297.14V298h-.37v-.81h.37" transform="translate(-1258.46 -173.58)"/><path d="M1348.41,297.14V298l-.35,0v-.81l.35,0" transform="translate(-1258.46 -173.58)"/><path d="M1348.06,297.12v.81l-.35,0v-.81l.35,0" transform="translate(-1258.46 -173.58)"/><path d="M1347.71,297.08v.81a2,2,0,0,1-.35-.06V297l.35.06" transform="translate(-1258.46 -173.58)"/><path d="M1347.36,297v.81a2.62,2.62,0,0,1-.38-.09v-.81l.37.09" transform="translate(-1258.46 -173.58)"/><path d="M1347,296.93v.81l-.43-.14v-.82c.14.06.29.1.44.15" transform="translate(-1258.46 -173.58)"/><path d="M1346.55,296.78v.82a4,4,0,0,1-.51-.25v-.81a4,4,0,0,0,.51.24" transform="translate(-1258.46 -173.58)"/></g></g></g></g></g></svg>